<?xml version="1.0" encoding="utf-8"?>
<!-- Generator: Adobe Illustrator 16.0.0, SVG Export Plug-In . SVG Version: 6.00 Build 0)  -->
<svg version="1.2" baseProfile="tiny" id="Selected_Items"
	 xmlns="http://www.w3.org/2000/svg" xmlns:xlink="http://www.w3.org/1999/xlink" x="0px" y="0px" width="279px" height="279px"
	 viewBox="0 0 279 279" xml:space="preserve">
<path fill-rule="evenodd" fill="#FFFFFF" d="M279,139.5c0,38.533-13.616,71.416-40.85,98.649S178.033,279,139.5,279
	s-71.417-13.617-98.65-40.851S0,178.033,0,139.5c0-38.534,13.617-71.417,40.85-98.65C68.083,13.617,100.967,0,139.5,0
	s71.417,13.617,98.65,40.85C265.384,68.083,279,100.966,279,139.5z"/>
<g id="InnerToil">
	<path fill-rule="evenodd" fill="#FFABCF" d="M226.835,52.165c24.109,24.11,36.164,53.222,36.164,87.335
		s-12.055,63.225-36.164,87.335c-24.11,24.109-53.222,36.164-87.335,36.164s-63.225-12.055-87.335-36.164
		C28.056,202.725,16,173.613,16,139.5s12.055-63.225,36.165-87.335C76.275,28.056,105.387,16,139.5,16
		S202.725,28.056,226.835,52.165z"/>
</g>
<g id="LaFemme">
	<path fill-rule="evenodd" fill="#FFFFFF" d="M161.45,87.1c3.566,2.8,5.866,6.183,6.899,10.15l14.2,53.5
		c1.067,3.967,0.567,7.351-1.5,10.149c-2.066,2.801-5.083,4.201-9.05,4.201h-12.05V220.3c0,3.967-1.417,7.35-4.25,10.15
		c-2.8,2.833-6.184,4.25-10.15,4.25H132.9c-3.967,0-7.367-1.417-10.2-4.25c-2.8-2.801-4.2-6.184-4.2-10.15v-55.199H107
		c-3.967,0-6.983-1.4-9.05-4.201c-2.067-2.799-2.567-6.183-1.5-10.149l14.2-53.5c1.067-3.967,3.367-7.367,6.9-10.2
		c3.567-2.8,7.333-4.2,11.3-4.2h21.3C154.117,82.85,157.883,84.267,161.45,87.1z M155.45,64c-0.534,3.633-2.15,6.8-4.851,9.5
		c-3.333,3.367-7.366,5.05-12.1,5.05c-4.7,0-8.733-1.683-12.1-5.05c-2.7-2.7-4.316-5.867-4.85-9.5c-0.1-0.833-0.15-1.683-0.15-2.55
		c0-4.733,1.667-8.784,5-12.15c3.367-3.333,7.4-5,12.1-5c4.733,0,8.767,1.667,12.1,5c3.334,3.367,5,7.417,5,12.15
		C155.6,62.317,155.55,63.167,155.45,64z"/>
</g>
</svg>
