<svg xmlns:dc="http://purl.org/dc/elements/1.1/" xmlns:cc="http://creativecommons.org/ns#" xmlns:rdf="http://www.w3.org/1999/02/22-rdf-syntax-ns#" xmlns:svg="http://www.w3.org/2000/svg" xmlns="http://www.w3.org/2000/svg" xmlns:sodipodi="http://sodipodi.sourceforge.net/DTD/sodipodi-0.dtd" xmlns:inkscape="http://www.inkscape.org/namespaces/inkscape" version="1.2" x="0px" y="0px" width="26.525px" height="39.336px" viewBox="0 0 26.525 39.336" xml:space="preserve" inkscape:version="0.48.4 r9939"><style>.style0{fill:	#ed8077;fill-rule:	evenodd;}.style1{fill:	#9c3d37;}</style><metadata><rdf:RDF><cc:Work rdf:about=""><dc:format>image/svg+xml</dc:format><dc:type rdf:resource="http://purl.org/dc/dcmitype/StillImage"/><dc:title/></cc:Work></rdf:RDF></metadata><defs/><g><g><path d="M 6.043 23.892 C 3.145 21.198 0.602 17.61 0.72 13.481 0.578 7.571 5.098 1.821 11.014 0.935 16.063 0.004 21.617 2.414 24.108 6.966 c 2.784 4.763 2.067 11.416 -2.034 15.215 -2.254 2.279 -4.239 4.837 -5.591 7.758 -1.383 2.754 -2.41 5.672 -3.273 8.626 C 12.844 36.082 11.701 33.799 10.768 31.49 9.199 28.017 7.138 24.719 4.394 22.051 4.962 22.648 5.505 23.268 6.043 23.892 z M 17.316 9.277 C 14.592 6.226 8.733 7.618 7.711 11.591 6.418 15.29 9.831 19.765 13.802 19.132 17.238 18.821 19.983 15.033 18.767 11.693 18.5 10.783 18.008 9.931 17.316 9.277 z M 13.262 38.176 13.305 38.07 13.262 38.176 z" inkscape:connector-curvature="0" class="style0"/><g><path d="M 13.219 0 C 9.237 -0.095 5.417 1.878 2.943 4.953 -1.248 9.868 -0.971 18.032 3.763 22.493 c 2.736 2.754 4.939 6.015 6.438 9.608 0.937 2.07 1.638 4.238 2.411 6.367 1.736 1.16 1.766 -1.956 2.349 -2.95 1.565 -4.3 3.536 -8.601 6.803 -11.882 2.274 -2.191 4.181 -4.931 4.601 -8.131 C 27.09 11.224 25.629 6.645 22.429 3.683 19.996 1.266 16.646 -0.058 13.219 0 z m 0 1.5 C 17.801 1.347 22.119 4.336 24.019 8.428 25.988 12.78 25.072 18.316 21.562 21.625 19.935 23.369 18.396 25.023 17.204 27.092 15.547 29.83 14.304 32.797 13.25 35.812 11.568 30.988 9.371 26.212 5.802 22.478 4.339 20.944 2.821 19.363 2.168 17.287 0.596 12.913 1.796 7.62 5.377 4.576 7.471 2.563 10.319 1.473 13.219 1.5 z m 0 5.344 c -3.838 -0.136 -7.133 3.711 -6.432 7.485 0.429 3.579 4.218 6.242 7.735 5.427 3.565 -0.609 6.014 -4.533 5.041 -8.011 C 18.881 8.924 16.132 6.77 13.219 6.844 z m 0 1.5 c 3.061 -0.125 5.655 3.025 4.941 6.009 -0.492 2.927 -3.875 4.812 -6.635 3.742 C 8.727 17.156 7.332 13.567 8.796 10.996 9.664 9.41 11.384 8.293 13.219 8.344 z" inkscape:connector-curvature="0" class="style1"/></g><g></g></g></g></svg>