<?xml version="1.0" encoding="utf-8"?>
<!-- Generator: Adobe Illustrator 16.0.0, SVG Export Plug-In . SVG Version: 6.00 Build 0)  -->
<svg version="1.2" baseProfile="tiny" xmlns="http://www.w3.org/2000/svg" xmlns:xlink="http://www.w3.org/1999/xlink" x="0px"
	 y="0px" width="2300px" height="595px" viewBox="0 0 2300 595" xml:space="preserve">
<g id="Background">
	<rect fill-rule="evenodd" fill="#EFEBE7" width="2299.95" height="595.25"/>
</g>
<g id="Base">
	<rect x="57.05" y="158.25" fill-rule="evenodd" fill="#FFFFFF" width="1141.65" height="227.35"/>
	<rect x="1009.05" y="142.25" fill-rule="evenodd" fill="#FFFFFF" width="189.65" height="16"/>
	<rect x="804.05" y="408.25" fill-rule="evenodd" fill="#FFFFFF" width="163" height="99"/>
	<rect x="886.05" y="383.25" fill-rule="evenodd" fill="#FFFFFF" width="81" height="25"/>
	<rect x="886.05" y="507.25" fill-rule="evenodd" fill="#FFFFFF" width="81" height="42"/>
	<rect x="967.05" y="439.75" fill-rule="evenodd" fill="#FFFFFF" width="469.65" height="67.5"/>
	<rect x="1081.55" y="382.25" fill-rule="evenodd" fill="#FFFFFF" width="355.15" height="57.5"/>
	<rect x="1199.05" y="325.25" fill-rule="evenodd" fill="#FFFFFF" width="199" height="60.35"/>
	<rect x="1398.05" y="158.25" fill-rule="evenodd" fill="#FFFFFF" width="838" height="227.35"/>
	<rect x="1637.05" y="385.25" fill-rule="evenodd" fill="#FFFFFF" width="83" height="164"/>
	<rect x="1720.05" y="421.25" fill-rule="evenodd" fill="#FFFFFF" width="100" height="57"/>
</g>
<g id="Helper">
	<g>
		<path fill-rule="evenodd" fill="#FFFFDE" d="M1009.05,230.95h-55.7h-53.3h-54.7H792.7h-50.65H688.1h-156h-55.35h-52h-52H319.4h-52
			v-72.7h52h53.35h52h52h55.35h156h53.95h50.65h52.65h54.7h53.3h55.7V230.95z M688.1,158.25v72.7V158.25z M742.05,158.25v72.7
			V158.25z M792.7,158.25v72.7V158.25z M845.35,230.95v-72.7V230.95z M900.05,158.25v72.7V158.25z M953.35,230.95v-72.7V230.95z
			 M372.75,230.95v-72.7V230.95z M424.75,230.95v-72.7V230.95z M476.75,230.95v-72.7V230.95z M532.1,230.95v-72.7V230.95z
			 M319.4,158.25v72.7V158.25z"/>
		<path fill-rule="evenodd" fill="none" stroke="#EFDAB7" stroke-width="2" stroke-miterlimit="10" d="M1009.05,230.95h-55.7h-53.3
			h-54.7H792.7h-50.65H688.1h-156h-55.35h-52h-52H319.4h-52v-72.7h52h53.35h52h52h55.35h156h53.95h50.65h52.65h54.7h53.3h55.7
			V230.95z M688.1,158.25v72.7 M742.05,158.25v72.7 M792.7,158.25v72.7 M845.35,230.95v-72.7 M900.05,158.25v72.7 M953.35,230.95
			v-72.7 M372.75,230.95v-72.7 M424.75,230.95v-72.7 M476.75,230.95v-72.7 M532.1,230.95v-72.7 M319.4,158.25v72.7"/>
	</g>
</g>
<g id="Layer_2">
	<g>
		<path fill-rule="evenodd" fill="#FFFFDE" d="M2076.7,383.85h-164V314.2h164V383.85z M2236.05,248.95h-488v-16h-154v-74.7h154h488
			V248.95z M1748.05,232.95v-74.7V232.95z M742.05,385.6H267.4V310.95h474.65V385.6z"/>
		<path fill-rule="evenodd" fill="none" stroke="#EFDAB7" stroke-width="2" stroke-miterlimit="10" d="M2076.7,383.85h-164V314.2
			h164V383.85z M2236.05,248.95h-488v-16h-154v-74.7h154h488V248.95z M1748.05,232.95v-74.7 M742.05,385.6H267.4V310.95h474.65
			V385.6z"/>
	</g>
</g>
<g id="Rooms">
	<path fill-rule="evenodd" fill="none" stroke="#EFDAB7" stroke-width="2" stroke-miterlimit="10" d="M2018.05,383.85V314.2
		 M1964.7,314.2v69.649 M2179.35,158.25v90.7 M2124.05,248.95v-90.7 M2067.35,158.25v90.7 M2004.7,248.95v-90.7 M1943.35,158.25
		v90.7 M1882.05,248.95v-90.7 M1815.35,158.25v90.7 M1699.35,232.95v-74.7 M1748.05,158.25v90.7 M1644.7,158.25v74.7 M688.1,382.25
		v-71.3 M372.75,383.25v-72.3 M424.75,310.95v72.3 M476.75,383.25v-72.3 M532.1,310.95v72.3 M319.4,310.95V385.6"/>
	<rect x="247.4" y="248.95" fill-rule="evenodd" fill="#FFFFDE" width="330.7" height="44.65"/>
	<rect x="612.1" y="248.95" fill-rule="evenodd" fill="#FFFFDE" width="240.6" height="44.65"/>
	<rect x="876.05" y="248.95" fill-rule="evenodd" fill="#FFFFDE" width="216.65" height="98.149"/>
	<rect x="1122.7" y="248.95" fill-rule="evenodd" fill="#FFFFDE" width="76" height="90.649"/>
	<rect x="1398.05" y="248.95" fill-rule="evenodd" fill="#FFFFDE" width="77.3" height="90.649"/>
	<rect x="1498.05" y="248.95" fill-rule="evenodd" fill="#FFFFDE" width="149.3" height="90.649"/>
	<rect x="1647.35" y="248.95" fill-rule="evenodd" fill="#FFFFDE" width="88" height="99.5"/>
	<rect x="1760.7" y="268.3" fill-rule="evenodd" fill="#FFFFDE" width="130.649" height="66.65"/>
	<rect x="1946.05" y="265.6" fill-rule="evenodd" fill="#FFFFDE" width="130.65" height="28.7"/>
	<g>
		<rect x="584.1" y="158.25" fill-rule="evenodd" fill="#FFE7C7" width="51.3" height="72.7"/>
		
			<rect x="584.1" y="158.25" fill-rule="evenodd" fill="none" stroke="#EFDAB7" stroke-width="2" stroke-miterlimit="10" width="51.3" height="72.7"/>
	</g>
	<g>
		<rect x="584.1" y="310.95" fill-rule="evenodd" fill="#DEDFDE" width="51.3" height="72.3"/>
		
			<rect x="584.1" y="310.95" fill-rule="evenodd" fill="none" stroke="#C7C4C7" stroke-width="2" stroke-miterlimit="10" width="51.3" height="72.3"/>
	</g>
	<g>
		<rect x="1009.05" y="142.25" fill-rule="evenodd" fill="#FFE7C7" width="103.65" height="88.7"/>
		
			<rect x="1009.05" y="142.25" fill-rule="evenodd" fill="none" stroke="#EFDAB7" stroke-width="2" stroke-miterlimit="10" width="103.65" height="88.7"/>
	</g>
	<g>
		<rect x="1487.35" y="142.25" fill-rule="evenodd" fill="#FFE7C7" width="106.7" height="90.7"/>
		
			<rect x="1487.35" y="142.25" fill-rule="evenodd" fill="none" stroke="#EFDAB7" stroke-width="2" stroke-miterlimit="10" width="106.7" height="90.7"/>
	</g>
	<g>
		<rect x="1436.7" y="385.25" fill-rule="evenodd" fill="#FFE7C7" width="81.85" height="122"/>
		
			<rect x="1436.7" y="385.25" fill-rule="evenodd" fill="none" stroke="#EFDAB7" stroke-width="2" stroke-miterlimit="10" width="81.85" height="122"/>
	</g>
	
		<line fill-rule="evenodd" fill="none" stroke="#EFDAB7" stroke-width="2" stroke-linecap="square" stroke-miterlimit="10" x1="1760.7" y1="268.3" x2="1760.7" y2="297.65"/>
	
		<line fill-rule="evenodd" fill="none" stroke="#EFDAB7" stroke-width="2" stroke-linecap="square" stroke-miterlimit="10" x1="1848.7" y1="268.3" x2="1848.7" y2="298.7"/>
	
		<line fill-rule="evenodd" fill="none" stroke="#EFDAB7" stroke-width="2" stroke-linecap="square" stroke-miterlimit="10" x1="1804" y1="305.6" x2="1804" y2="334.95"/>
	
		<line fill-rule="evenodd" fill="none" stroke="#EFDAB7" stroke-width="2" stroke-linecap="square" stroke-miterlimit="10" x1="1891.35" y1="305.6" x2="1891.35" y2="334.95"/>
	
		<line fill-rule="evenodd" fill="none" stroke="#EFDAB7" stroke-width="2" stroke-miterlimit="10" x1="1760.7" y1="268.3" x2="1891.35" y2="268.3"/>
	
		<line fill-rule="evenodd" fill="none" stroke="#EFDAB7" stroke-width="2" stroke-miterlimit="10" x1="1991.35" y1="265.6" x2="1991.35" y2="294.25"/>
	
		<line fill-rule="evenodd" fill="none" stroke="#EFDAB7" stroke-width="2" stroke-miterlimit="10" x1="2076.7" y1="265.6" x2="2076.7" y2="294.3"/>
	<g>
		
			<line fill-rule="evenodd" fill="none" stroke="#EFDAB7" stroke-width="2" stroke-miterlimit="10" x1="1946.05" y1="265.6" x2="1946.05" y2="294.3"/>
	</g>
	
		<line fill-rule="evenodd" fill="none" stroke="#EFDAB7" stroke-width="2" stroke-linecap="square" stroke-miterlimit="10" x1="1946.05" y1="265.6" x2="2076.7" y2="265.6"/>
	<g>
		<rect x="111.4" y="242.3" fill-rule="evenodd" fill="#EAF1FC" width="52" height="103.45"/>
		
			<rect x="111.4" y="242.3" fill-rule="evenodd" fill="none" stroke="#B2C7E0" stroke-width="2" stroke-miterlimit="10" width="52" height="103.45"/>
	</g>
	<g>
		<polygon fill-rule="evenodd" fill="#FFEBEF" points="202.75,266.95 225.4,266.95 225.4,345.75 163.4,345.75 163.4,242.3 
			202.75,242.3 		"/>
		<polygon fill-rule="evenodd" fill="none" stroke="#E7B8C8" stroke-width="2" stroke-miterlimit="10" points="202.75,266.95 
			202.75,242.3 163.4,242.3 163.4,345.75 225.4,345.75 225.4,266.95 		"/>
	</g>
	<g>
		<rect x="1518.55" y="386.25" fill-rule="evenodd" fill="#FFEBEF" width="118.5" height="61"/>
		
			<rect x="1518.55" y="386.25" fill-rule="evenodd" fill="none" stroke="#E7B8C8" stroke-width="2" stroke-miterlimit="10" width="118.5" height="61"/>
	</g>
	<g>
		<rect x="1518.55" y="447.25" fill-rule="evenodd" fill="#EAF1FC" width="118.5" height="61"/>
		
			<rect x="1518.55" y="447.25" fill-rule="evenodd" fill="none" stroke="#B2C7E0" stroke-width="2" stroke-miterlimit="10" width="118.5" height="61"/>
	</g>
	<g>
		<rect x="175.4" y="158.25" fill-rule="evenodd" fill="#DAD7FE" width="92" height="56.7"/>
		
			<rect x="175.4" y="158.25" fill-rule="evenodd" fill="none" stroke="#B9B5E3" stroke-width="2" stroke-miterlimit="10" width="92" height="56.7"/>
	</g>
	<g>
		<rect x="2117.35" y="279.95" fill-rule="evenodd" fill="#DAD7FE" width="56.65" height="40.35"/>
		
			<rect x="2117.35" y="279.95" fill-rule="evenodd" fill="none" stroke="#B9B5E3" stroke-width="2" stroke-miterlimit="10" width="56.65" height="40.35"/>
	</g>
	<g>
		<rect x="967.05" y="382.25" fill-rule="evenodd" fill="#DAD7FE" width="114.5" height="57.5"/>
		
			<rect x="967.05" y="382.25" fill-rule="evenodd" fill="none" stroke="#B9B5E3" stroke-width="2" stroke-miterlimit="10" width="114.5" height="57.5"/>
	</g>
	<g>
		<rect x="57.05" y="158.25" fill-rule="evenodd" fill="#DEDFDE" width="54.35" height="84.05"/>
		
			<rect x="57.05" y="158.25" fill-rule="evenodd" fill="none" stroke="#C7C4C7" stroke-width="2" stroke-miterlimit="10" width="54.35" height="84.05"/>
	</g>
	<g>
		<rect x="111.4" y="158.25" fill-rule="evenodd" fill="#DEDFDE" width="64" height="56.7"/>
		
			<rect x="111.4" y="158.25" fill-rule="evenodd" fill="none" stroke="#C7C4C7" stroke-width="2" stroke-miterlimit="10" width="64" height="56.7"/>
	</g>
	<g>
		<rect x="2174" y="279.95" fill-rule="evenodd" fill="#DEDFDE" width="62.05" height="40.35"/>
		
			<rect x="2174" y="279.95" fill-rule="evenodd" fill="none" stroke="#C7C4C7" stroke-width="2" stroke-miterlimit="10" width="62.05" height="40.35"/>
	</g>
	<g>
		<rect x="1112.7" y="142.25" fill-rule="evenodd" fill="#DEDFDE" width="86" height="88.7"/>
		
			<rect x="1112.7" y="142.25" fill-rule="evenodd" fill="none" stroke="#C7C4C7" stroke-width="2" stroke-miterlimit="10" width="86" height="88.7"/>
	</g>
	<g>
		<rect x="1398.05" y="142.25" fill-rule="evenodd" fill="#DEDFDE" width="89.3" height="90.7"/>
		
			<rect x="1398.05" y="142.25" fill-rule="evenodd" fill="none" stroke="#C7C4C7" stroke-width="2" stroke-miterlimit="10" width="89.3" height="90.7"/>
	</g>
	<g>
		<rect x="742.05" y="310.95" fill-rule="evenodd" fill="#DEDFDE" width="110.65" height="71.3"/>
		
			<rect x="742.05" y="310.95" fill-rule="evenodd" fill="none" stroke="#C7C4C7" stroke-width="2" stroke-miterlimit="10" width="110.65" height="71.3"/>
	</g>
	
		<line fill-rule="evenodd" fill="none" stroke="#C7C4C7" stroke-width="2" stroke-miterlimit="10" x1="2129.35" y1="351.45" x2="2205" y2="351.45"/>
	
		<line fill-rule="evenodd" fill="none" stroke="#C7C4C7" stroke-width="2" stroke-miterlimit="10" x1="2141.35" y1="321.31" x2="2141.35" y2="383.529"/>
	
		<line fill-rule="evenodd" fill="none" stroke="#C7C4C7" stroke-width="2" stroke-miterlimit="10" x1="2155.35" y1="321.27" x2="2155.35" y2="383.443"/>
	
		<line fill-rule="evenodd" fill="none" stroke="#C7C4C7" stroke-width="2" stroke-miterlimit="10" x1="2167.2" y1="321.269" x2="2167.2" y2="383.249"/>
	
		<line fill-rule="evenodd" fill="none" stroke="#C7C4C7" stroke-width="2" stroke-miterlimit="10" x1="2179.35" y1="320.327" x2="2179.35" y2="383.463"/>
	
		<line fill-rule="evenodd" fill="none" stroke="#C7C4C7" stroke-width="2" stroke-miterlimit="10" x1="2192" y1="320.344" x2="2192" y2="383.192"/>
	
		<line fill-rule="evenodd" fill="none" stroke="#C7C4C7" stroke-width="2" stroke-miterlimit="10" x1="2205" y1="320.3" x2="2205" y2="383.25"/>
	
		<line fill-rule="evenodd" fill="none" stroke="#C7C4C7" stroke-width="2" stroke-miterlimit="10" x1="2129.35" y1="321.331" x2="2129.35" y2="383.116"/>
	
		<line fill-rule="evenodd" fill="none" stroke="#C7C4C7" stroke-width="2" stroke-miterlimit="10" x1="1730.35" y1="449.95" x2="1798.8" y2="449.95"/>
	
		<line fill-rule="evenodd" fill="none" stroke="#C7C4C7" stroke-width="2" stroke-miterlimit="10" x1="1741.2" y1="421.8" x2="1741.2" y2="477.25"/>
	
		<line fill-rule="evenodd" fill="none" stroke="#C7C4C7" stroke-width="2" stroke-miterlimit="10" x1="1753.9" y1="421.8" x2="1753.9" y2="477.25"/>
	
		<line fill-rule="evenodd" fill="none" stroke="#C7C4C7" stroke-width="2" stroke-miterlimit="10" x1="1764.6" y1="421.8" x2="1764.6" y2="478.75"/>
	
		<line fill-rule="evenodd" fill="none" stroke="#C7C4C7" stroke-width="2" stroke-miterlimit="10" x1="1775.6" y1="421.8" x2="1775.6" y2="478.45"/>
	
		<line fill-rule="evenodd" fill="none" stroke="#C7C4C7" stroke-width="2" stroke-miterlimit="10" x1="1787.05" y1="421.8" x2="1787.05" y2="477.25"/>
	
		<line fill-rule="evenodd" fill="none" stroke="#C7C4C7" stroke-width="2" stroke-miterlimit="10" x1="1798.8" y1="421.8" x2="1798.8" y2="478.75"/>
	
		<line fill-rule="evenodd" fill="none" stroke="#C7C4C7" stroke-width="2" stroke-miterlimit="10" x1="1730.35" y1="421.8" x2="1730.35" y2="477.25"/>
	
		<line fill-rule="evenodd" fill="none" stroke="#C7C4C7" stroke-width="2" stroke-miterlimit="10" x1="84.95" y1="317.35" x2="84.95" y2="253.75"/>
	
		<line fill-rule="evenodd" fill="none" stroke="#C7C4C7" stroke-width="2" stroke-miterlimit="10" x1="58.85" y1="307.3" x2="110.45" y2="307.3"/>
	
		<line fill-rule="evenodd" fill="none" stroke="#C7C4C7" stroke-width="2" stroke-miterlimit="10" x1="58.85" y1="295.5" x2="110.45" y2="295.5"/>
	
		<line fill-rule="evenodd" fill="none" stroke="#C7C4C7" stroke-width="2" stroke-miterlimit="10" x1="57.45" y1="285.55" x2="110.45" y2="285.55"/>
	
		<line fill-rule="evenodd" fill="none" stroke="#C7C4C7" stroke-width="2" stroke-miterlimit="10" x1="57.7" y1="275.3" x2="110.4" y2="275.3"/>
	
		<line fill-rule="evenodd" fill="none" stroke="#C7C4C7" stroke-width="2" stroke-miterlimit="10" x1="58.85" y1="264.65" x2="110.45" y2="264.65"/>
	
		<line fill-rule="evenodd" fill="none" stroke="#C7C4C7" stroke-width="2" stroke-miterlimit="10" x1="57.8" y1="253.75" x2="110.45" y2="253.75"/>
	
		<line fill-rule="evenodd" fill="none" stroke="#C7C4C7" stroke-width="2" stroke-miterlimit="10" x1="58.85" y1="317.35" x2="110.45" y2="317.35"/>
	
		<line fill-rule="evenodd" fill="none" stroke="#C7C4C7" stroke-width="2" stroke-miterlimit="10" x1="844.55" y1="493.55" x2="875.2" y2="493.55"/>
	
		<line fill-rule="evenodd" fill="none" stroke="#C7C4C7" stroke-width="2" stroke-miterlimit="10" x1="849.4" y1="480.95" x2="849.4" y2="505.75"/>
	
		<line fill-rule="evenodd" fill="none" stroke="#C7C4C7" stroke-width="2" stroke-miterlimit="10" x1="855.1" y1="480.95" x2="855.1" y2="505.75"/>
	
		<line fill-rule="evenodd" fill="none" stroke="#C7C4C7" stroke-width="2" stroke-miterlimit="10" x1="859.9" y1="480.95" x2="859.9" y2="506.45"/>
	
		<line fill-rule="evenodd" fill="none" stroke="#C7C4C7" stroke-width="2" stroke-miterlimit="10" x1="864.8" y1="480.95" x2="864.8" y2="506.3"/>
	
		<line fill-rule="evenodd" fill="none" stroke="#C7C4C7" stroke-width="2" stroke-miterlimit="10" x1="869.95" y1="480.95" x2="869.95" y2="505.75"/>
	
		<line fill-rule="evenodd" fill="none" stroke="#C7C4C7" stroke-width="2" stroke-miterlimit="10" x1="875.2" y1="480.95" x2="875.2" y2="506.45"/>
	
		<line fill-rule="evenodd" fill="none" stroke="#C7C4C7" stroke-width="2" stroke-miterlimit="10" x1="844.55" y1="480.95" x2="844.55" y2="505.75"/>
	
		<line fill-rule="evenodd" fill="none" stroke="#C7C4C7" stroke-width="2" stroke-miterlimit="10" x1="844.55" y1="423.65" x2="875.2" y2="423.65"/>
	
		<line fill-rule="evenodd" fill="none" stroke="#C7C4C7" stroke-width="2" stroke-miterlimit="10" x1="849.4" y1="411.05" x2="849.4" y2="435.85"/>
	
		<line fill-rule="evenodd" fill="none" stroke="#C7C4C7" stroke-width="2" stroke-miterlimit="10" x1="855.1" y1="411" x2="855.1" y2="435.85"/>
	
		<line fill-rule="evenodd" fill="none" stroke="#C7C4C7" stroke-width="2" stroke-miterlimit="10" x1="859.9" y1="411.05" x2="859.9" y2="436.55"/>
	
		<line fill-rule="evenodd" fill="none" stroke="#C7C4C7" stroke-width="2" stroke-miterlimit="10" x1="864.8" y1="411.05" x2="864.8" y2="436.4"/>
	
		<line fill-rule="evenodd" fill="none" stroke="#C7C4C7" stroke-width="2" stroke-miterlimit="10" x1="869.95" y1="411.05" x2="869.95" y2="435.85"/>
	
		<line fill-rule="evenodd" fill="none" stroke="#C7C4C7" stroke-width="2" stroke-miterlimit="10" x1="875.2" y1="411" x2="875.2" y2="436.55"/>
	
		<line fill-rule="evenodd" fill="none" stroke="#C7C4C7" stroke-width="2" stroke-miterlimit="10" x1="844.55" y1="411.05" x2="844.55" y2="435.85"/>
	
		<line fill-rule="evenodd" fill="none" stroke="#C7C4C7" stroke-width="2" stroke-miterlimit="10" x1="818.5" y1="442.65" x2="818.5" y2="473.25"/>
	
		<line fill-rule="evenodd" fill="none" stroke="#C7C4C7" stroke-width="2" stroke-miterlimit="10" x1="831.1" y1="447.5" x2="806.3" y2="447.5"/>
	
		<line fill-rule="evenodd" fill="none" stroke="#C7C4C7" stroke-width="2" stroke-miterlimit="10" x1="831.1" y1="453.15" x2="806.3" y2="453.15"/>
	
		<line fill-rule="evenodd" fill="none" stroke="#C7C4C7" stroke-width="2" stroke-miterlimit="10" x1="831.1" y1="457.95" x2="805.6" y2="457.95"/>
	
		<line fill-rule="evenodd" fill="none" stroke="#C7C4C7" stroke-width="2" stroke-miterlimit="10" x1="831.1" y1="462.85" x2="805.75" y2="462.85"/>
	
		<line fill-rule="evenodd" fill="none" stroke="#C7C4C7" stroke-width="2" stroke-miterlimit="10" x1="831.1" y1="468" x2="806.3" y2="468"/>
	
		<line fill-rule="evenodd" fill="none" stroke="#C7C4C7" stroke-width="2" stroke-miterlimit="10" x1="831.1" y1="473.25" x2="805.6" y2="473.25"/>
	
		<line fill-rule="evenodd" fill="none" stroke="#C7C4C7" stroke-width="2" stroke-miterlimit="10" x1="831.1" y1="442.65" x2="806.3" y2="442.65"/>
	<path fill-rule="evenodd" fill="none" stroke="#C7C4C7" stroke-width="2" stroke-miterlimit="10" d="M1402.7,418v31.2v30.149h-13
		h-12.65h-12.2H1353h-14h-12V449.2V418h12h14h11.85h12.2h12.65H1402.7z M1389.7,479.35V449.2h-12.65v30.149 M1402.7,449.2h-13
		 M1364.85,418v31.2h12.2V418 M1389.7,418v31.2 M1353,479.35V449.2h-14v30.149 M1364.85,479.35V449.2H1353V418 M1339,449.2h-12
		 M1339,418v31.2"/>
</g>
<g id="Heavy_Lines">
	<path fill-rule="evenodd" fill="none" stroke="#C7C4C7" stroke-width="2" stroke-miterlimit="10" d="M1152.05,142.25l9.8-7.75
		c8.667-6.167,18.317-11.833,28.95-17c34-16.5,71.417-24.75,112.25-24.75s76.75,8.25,107.75,24.75
		c9.7,5.167,18.317,10.833,25.851,17c3.767,3.1,6.566,5.683,8.399,7.75"/>
	<path fill-rule="evenodd" fill="none" stroke="#C7C4C7" stroke-width="5" stroke-miterlimit="10" d="M1117.05,142.25l12.45-10.85
		c10.934-8.7,22.917-16.667,35.95-23.9c41.667-23.167,86.033-34.75,133.1-34.75c47.101,0,91.733,11.583,133.9,34.75
		c13.167,7.233,25.3,15.2,36.399,23.9c5.567,4.333,9.801,7.95,12.7,10.85"/>
	
		<line fill-rule="evenodd" fill="none" stroke="#EFDAB7" stroke-width="2" stroke-miterlimit="10" x1="1398.05" y1="294.25" x2="1475.35" y2="294.25"/>
	<polyline fill-rule="evenodd" fill="none" stroke="#BF8B62" stroke-width="5" stroke-miterlimit="10" points="1150.05,507.25 
		967.05,507.25 967.05,549.25 	"/>
	<polyline fill-rule="evenodd" fill="none" stroke="#BF8B62" stroke-width="5" stroke-miterlimit="10" points="1637.05,549.25 
		1637.05,507.25 1264.05,507.25 	"/>
	
		<polyline fill-rule="evenodd" fill="none" stroke="#BF8B62" stroke-width="5" stroke-linecap="square" stroke-miterlimit="10" points="
		1081.55,382.25 967.05,382.25 967.05,439.75 1020.55,439.75 	"/>
	
		<polyline fill-rule="evenodd" fill="none" stroke="#BF8B62" stroke-width="5" stroke-linecap="square" stroke-miterlimit="10" points="
		1518.55,507.25 1518.55,385.25 1637.05,385.25 	"/>
	
		<line fill-rule="evenodd" fill="none" stroke="#EFDAB7" stroke-width="2" stroke-miterlimit="10" x1="578.1" y1="292.3" x2="578.1" y2="248.9"/>
	
		<line fill-rule="evenodd" fill="none" stroke="#EFDAB7" stroke-width="2" stroke-miterlimit="10" x1="517.4" y1="248.95" x2="517.4" y2="293.6"/>
	
		<line fill-rule="evenodd" fill="none" stroke="#EFDAB7" stroke-width="2" stroke-miterlimit="10" x1="457.15" y1="248.881" x2="457.15" y2="293.576"/>
	
		<line fill-rule="evenodd" fill="none" stroke="#EFDAB7" stroke-width="2" stroke-miterlimit="10" x1="398.75" y1="248.95" x2="398.75" y2="293.6"/>
	
		<line fill-rule="evenodd" fill="none" stroke="#EFDAB7" stroke-width="2" stroke-miterlimit="10" x1="337.4" y1="248.961" x2="337.4" y2="293.602"/>
	
		<line fill-rule="evenodd" fill="none" stroke="#EFDAB7" stroke-width="2" stroke-miterlimit="10" x1="277.4" y1="248.941" x2="277.4" y2="292.577"/>
	
		<line fill-rule="evenodd" fill="none" stroke="#EFDAB7" stroke-width="2" stroke-miterlimit="10" x1="247.4" y1="293.6" x2="277.4" y2="293.6"/>
	
		<line fill-rule="evenodd" fill="none" stroke="#EFDAB7" stroke-width="2" stroke-miterlimit="10" x1="277.4" y1="293.6" x2="337.4" y2="293.6"/>
	
		<line fill-rule="evenodd" fill="none" stroke="#EFDAB7" stroke-width="2" stroke-miterlimit="10" x1="398.75" y1="248.95" x2="368.75" y2="248.95"/>
	
		<line fill-rule="evenodd" fill="none" stroke="#EFDAB7" stroke-width="2" stroke-miterlimit="10" x1="337.4" y1="293.6" x2="368.75" y2="293.6"/>
	
		<line fill-rule="evenodd" fill="none" stroke="#EFDAB7" stroke-width="2" stroke-miterlimit="10" x1="398.75" y1="248.95" x2="424.75" y2="248.95"/>
	
		<line fill-rule="evenodd" fill="none" stroke="#EFDAB7" stroke-width="2" stroke-miterlimit="10" x1="425.4" y1="293.6" x2="458.05" y2="293.6"/>
	
		<line fill-rule="evenodd" fill="none" stroke="#EFDAB7" stroke-width="2" stroke-miterlimit="10" x1="458.05" y1="293.6" x2="487.4" y2="293.6"/>
	
		<line fill-rule="evenodd" fill="none" stroke="#EFDAB7" stroke-width="2" stroke-miterlimit="10" x1="486.75" y1="248.95" x2="517.4" y2="248.95"/>
	
		<line fill-rule="evenodd" fill="none" stroke="#EFDAB7" stroke-width="2" stroke-miterlimit="10" x1="517.4" y1="248.95" x2="546.1" y2="248.95"/>
	
		<line fill-rule="evenodd" fill="none" stroke="#EFDAB7" stroke-width="2" stroke-linecap="square" stroke-miterlimit="10" x1="546.1" y1="292.3" x2="578.1" y2="292.3"/>
	
		<line fill-rule="evenodd" fill="none" stroke="#EFDAB7" stroke-width="2" stroke-linecap="square" stroke-miterlimit="10" x1="612.1" y1="249.913" x2="612.1" y2="293.605"/>
	
		<line fill-rule="evenodd" fill="none" stroke="#EFDAB7" stroke-width="2" stroke-miterlimit="10" x1="672.75" y1="248.854" x2="672.75" y2="293.597"/>
	
		<line fill-rule="evenodd" fill="none" stroke="#EFDAB7" stroke-width="2" stroke-miterlimit="10" x1="732.35" y1="248.95" x2="732.35" y2="293.6"/>
	
		<line fill-rule="evenodd" fill="none" stroke="#EFDAB7" stroke-width="2" stroke-miterlimit="10" x1="792.7" y1="248.95" x2="792.7" y2="293.6"/>
	
		<line fill-rule="evenodd" fill="none" stroke="#EFDAB7" stroke-width="2" stroke-miterlimit="10" x1="852.7" y1="248.95" x2="852.7" y2="293.6"/>
	
		<line fill-rule="evenodd" fill="none" stroke="#EFDAB7" stroke-width="2" stroke-miterlimit="10" x1="642.1" y1="248.95" x2="702.75" y2="248.95"/>
	
		<line fill-rule="evenodd" fill="none" stroke="#EFDAB7" stroke-width="2" stroke-miterlimit="10" x1="612.1" y1="293.6" x2="642.1" y2="293.6"/>
	
		<line fill-rule="evenodd" fill="none" stroke="#EFDAB7" stroke-width="2" stroke-miterlimit="10" x1="702.75" y1="293.6" x2="762.05" y2="293.6"/>
	
		<line fill-rule="evenodd" fill="none" stroke="#EFDAB7" stroke-width="2" stroke-miterlimit="10" x1="762.05" y1="248.95" x2="822.05" y2="248.95"/>
	
		<line fill-rule="evenodd" fill="none" stroke="#EFDAB7" stroke-width="2" stroke-linecap="square" stroke-miterlimit="10" x1="822.05" y1="293.6" x2="852.7" y2="293.6"/>
	
		<line fill-rule="evenodd" fill="none" stroke="#EFDAB7" stroke-width="2" stroke-miterlimit="10" x1="876.05" y1="280.95" x2="1092.05" y2="280.95"/>
	
		<line fill-rule="evenodd" fill="none" stroke="#EFDAB7" stroke-width="2" stroke-miterlimit="10" x1="919.35" y1="248.95" x2="919.35" y2="310.95"/>
	
		<line fill-rule="evenodd" fill="none" stroke="#EFDAB7" stroke-width="2" stroke-miterlimit="10" x1="1005.35" y1="248.95" x2="1005.35" y2="310.95"/>
	
		<line fill-rule="evenodd" fill="none" stroke="#EFDAB7" stroke-width="2" stroke-miterlimit="10" x1="1092.7" y1="248.95" x2="1092.7" y2="310.95"/>
	
		<line fill-rule="evenodd" fill="none" stroke="#EFDAB7" stroke-width="2" stroke-linecap="square" stroke-miterlimit="10" x1="876.05" y1="318.95" x2="876.05" y2="347.1"/>
	
		<line fill-rule="evenodd" fill="none" stroke="#EFDAB7" stroke-width="2" stroke-miterlimit="10" x1="962.05" y1="318.95" x2="962.05" y2="346.6"/>
	
		<line fill-rule="evenodd" fill="none" stroke="#EFDAB7" stroke-width="2" stroke-miterlimit="10" x1="876.05" y1="347.1" x2="1092.7" y2="347.1"/>
	
		<line fill-rule="evenodd" fill="none" stroke="#EFDAB7" stroke-width="2" stroke-miterlimit="10" x1="1048.7" y1="318.95" x2="1048.7" y2="347.1"/>
	
		<line fill-rule="evenodd" fill="none" stroke="#EFDAB7" stroke-width="2" stroke-miterlimit="10" x1="1123.7" y1="294.3" x2="1196.35" y2="294.3"/>
	
		<line fill-rule="evenodd" fill="none" stroke="#EFDAB7" stroke-width="2" stroke-miterlimit="10" x1="1498.05" y1="297.25" x2="1647.35" y2="297.25"/>
	
		<line fill-rule="evenodd" fill="none" stroke="#EFDAB7" stroke-width="2" stroke-miterlimit="10" x1="1647.35" y1="248.95" x2="1647.35" y2="348.45"/>
	
		<line fill-rule="evenodd" fill="none" stroke="#EFDAB7" stroke-width="2" stroke-miterlimit="10" x1="1735.35" y1="248.95" x2="1735.35" y2="348.45"/>
	
		<line fill-rule="evenodd" fill="none" stroke="#EFDAB7" stroke-width="2" stroke-miterlimit="10" x1="1735.35" y1="282.95" x2="1647.35" y2="282.95"/>
	
		<line fill-rule="evenodd" fill="none" stroke="#EFDAB7" stroke-width="2" stroke-miterlimit="10" x1="1691.35" y1="248.95" x2="1691.35" y2="313.6"/>
	
		<line fill-rule="evenodd" fill="none" stroke="#EFDAB7" stroke-width="2" stroke-miterlimit="10" x1="1572.7" y1="248.95" x2="1572.7" y2="339.6"/>
	
		<line fill-rule="evenodd" fill="none" stroke="#EFDAB7" stroke-width="2" stroke-miterlimit="10" x1="1498.05" y1="248.95" x2="1498.05" y2="339.6"/>
	
		<line fill-rule="evenodd" fill="none" stroke="#EFDAB7" stroke-width="2" stroke-miterlimit="10" x1="1122.7" y1="248.95" x2="1122.7" y2="339.6"/>
	
		<line fill-rule="evenodd" fill="none" stroke="#EFDAB7" stroke-width="2" stroke-miterlimit="10" x1="1475.35" y1="248.95" x2="1475.35" y2="339.6"/>
	
		<line fill-rule="evenodd" fill="none" stroke="#EFDAB7" stroke-width="2" stroke-miterlimit="10" x1="1760.7" y1="334.95" x2="1891.35" y2="334.95"/>
	<polyline fill-rule="evenodd" fill="none" stroke="#BF8B62" stroke-width="5" stroke-miterlimit="10" points="886.05,549.25 
		886.05,507.25 804.05,507.25 804.05,408.25 886.05,408.25 886.05,383.25 57.05,385.6 	"/>
	<polyline fill-rule="evenodd" fill="none" stroke="#BF8B62" stroke-width="5" stroke-miterlimit="10" points="1720.05,549.25 
		1720.05,478.25 1820.05,478.25 1820.05,421.25 1720.05,421.25 1720.05,385.25 2236.05,385.6 2236.05,158.25 1594.05,158.25 
		1594.05,142.25 1398.05,142.25 1398.05,325.25 1198.7,325.25 1198.7,142.25 1009.05,142.25 1009.05,158.25 57.05,158.25 
		57.05,345.75 	"/>
</g>
<g id="Indicator">
	<g>
		<rect x="831.35" y="435.6" fill-rule="evenodd" fill="#FB8888" width="54" height="44.7"/>
		
			<rect x="831.35" y="435.6" fill-rule="evenodd" fill="none" stroke="#B3645E" stroke-width="2" stroke-miterlimit="10" width="54" height="44.7"/>
	</g>
</g>
</svg>
