<?xml version="1.0" encoding="utf-8"?>
<!-- Generator: Adobe Illustrator 16.0.0, SVG Export Plug-In . SVG Version: 6.00 Build 0)  -->
<svg version="1.2" baseProfile="tiny" xmlns="http://www.w3.org/2000/svg" xmlns:xlink="http://www.w3.org/1999/xlink" x="0px"
	 y="0px" width="2300px" height="870px" viewBox="0 0 2300 870" xml:space="preserve">
<g id="Background">
	<rect fill-rule="evenodd" fill="#EFEBE7" width="2301.916" height="869.993"/>
</g>
<g id="Layer_9">
	<path fill-rule="evenodd" fill="#FFFFFF" d="M1416.3,120.9c32.101,17.967,48.15,39.65,48.15,65.05c0,25.4-16.05,47.083-48.15,65.05
		c-32.066,17.967-70.783,26.95-116.149,26.95c-45.367,0-84.101-8.983-116.2-26.95c-32.067-17.971-48.484-39.729-49.25-65.275
		c-0.766-25.538,15.209-47.229,47.925-65.075c32.715-17.846,71.823-26.754,117.325-26.725
		C1345.45,93.946,1384.233,102.938,1416.3,120.9z"/>
	<rect x="57.086" y="158.25" fill-rule="evenodd" fill="#FFFFFF" width="2193.97" height="227.35"/>
</g>
<g id="curve">
	<path fill-rule="evenodd" fill="none" stroke="#C8C4C7" stroke-width="2" stroke-linejoin="bevel" stroke-miterlimit="3" d="
		M1151.7,142.25l9.8-7.75c8.667-6.167,18.316-11.833,28.95-17c34-16.5,71.417-24.75,112.25-24.75s76.75,8.25,107.75,24.75
		c9.7,5.167,18.316,10.833,25.85,17c3.767,3.1,6.567,5.683,8.4,7.75"/>
</g>
<g id="Layer_8">
	<rect x="886.088" y="293.81" fill-rule="evenodd" fill="#FFFFFF" width="833.725" height="521.866"/>
	<g>
		<polygon fill-rule="evenodd" fill="#FFFFDE" points="1021.291,508.167 1021.291,574.908 966.842,574.986 966.842,508.246 		"/>
		<polygon fill-rule="evenodd" fill="none" stroke="#F2DBB5" stroke-width="2" stroke-miterlimit="10" points="1021.291,508.167 
			1021.291,574.908 966.842,574.986 966.842,508.246 		"/>
	</g>
	<rect x="1009" y="142.25" fill-rule="evenodd" fill="#FFFFFF" width="189.7" height="16"/>
	<rect x="804" y="408.25" fill-rule="evenodd" fill="#FFFFFF" width="163" height="99"/>
	<rect x="886" y="383.25" fill-rule="evenodd" fill="#FFFFFF" width="81" height="25"/>
	<rect x="886" y="507.25" fill-rule="evenodd" fill="#FFFFFF" width="81" height="42"/>
	<rect x="967" y="439.75" fill-rule="evenodd" fill="#FFFFFF" width="469.7" height="67.5"/>
	<rect x="1081.5" y="382.25" fill-rule="evenodd" fill="#FFFFFF" width="355.2" height="57.5"/>
	<rect x="1199.05" y="325.25" fill-rule="evenodd" fill="#FFFFFF" width="199" height="60.35"/>
	<rect x="1720.05" y="421.25" fill-rule="evenodd" fill="#FFFFFF" width="100" height="57"/>
	<g>
		<rect x="267.4" y="158.25" fill-rule="evenodd" fill="#FFFFDE" width="52" height="72.7"/>
		
			<rect x="267.4" y="158.25" fill-rule="evenodd" fill="none" stroke="#F2DBB5" stroke-width="2" stroke-miterlimit="10" width="52" height="72.7"/>
	</g>
	<g>
		<rect x="319.4" y="158.25" fill-rule="evenodd" fill="#FFFFDE" width="53.35" height="72.7"/>
		
			<rect x="319.4" y="158.25" fill-rule="evenodd" fill="none" stroke="#F2DBB5" stroke-width="2" stroke-miterlimit="10" width="53.35" height="72.7"/>
	</g>
	<g>
		<rect x="372.75" y="158.25" fill-rule="evenodd" fill="#FFFFDE" width="52" height="72.7"/>
		
			<rect x="372.75" y="158.25" fill-rule="evenodd" fill="none" stroke="#F2DBB5" stroke-width="2" stroke-miterlimit="10" width="52" height="72.7"/>
	</g>
	<g>
		<rect x="424.75" y="158.25" fill-rule="evenodd" fill="#FFFFDE" width="52" height="72.7"/>
		
			<rect x="424.75" y="158.25" fill-rule="evenodd" fill="none" stroke="#F2DBB5" stroke-width="2" stroke-miterlimit="10" width="52" height="72.7"/>
	</g>
	<g>
		<rect x="476.75" y="158.25" fill-rule="evenodd" fill="#FFFFDE" width="55.35" height="72.7"/>
		
			<rect x="476.75" y="158.25" fill-rule="evenodd" fill="none" stroke="#F2DBB5" stroke-width="2" stroke-miterlimit="10" width="55.35" height="72.7"/>
	</g>
	<g>
		<rect x="532.1" y="158.25" fill-rule="evenodd" fill="#FFFFDE" width="52" height="72.7"/>
		
			<rect x="532.1" y="158.25" fill-rule="evenodd" fill="none" stroke="#F2DBB5" stroke-width="2" stroke-miterlimit="10" width="52" height="72.7"/>
	</g>
	<g>
		<rect x="635.4" y="158.25" fill-rule="evenodd" fill="#FFFFDE" width="52.7" height="72.7"/>
		
			<rect x="635.4" y="158.25" fill-rule="evenodd" fill="none" stroke="#F2DBB5" stroke-width="2" stroke-miterlimit="10" width="52.7" height="72.7"/>
	</g>
	<g>
		<rect x="688.1" y="158.25" fill-rule="evenodd" fill="#FFFFDE" width="53.95" height="72.7"/>
		
			<rect x="688.1" y="158.25" fill-rule="evenodd" fill="none" stroke="#F2DBB5" stroke-width="2" stroke-miterlimit="10" width="53.95" height="72.7"/>
	</g>
	<g>
		<rect x="742.05" y="158.25" fill-rule="evenodd" fill="#FFFFDE" width="50.65" height="72.7"/>
		
			<rect x="742.05" y="158.25" fill-rule="evenodd" fill="none" stroke="#F2DBB5" stroke-width="2" stroke-miterlimit="10" width="50.65" height="72.7"/>
	</g>
	<g>
		<rect x="792.7" y="158.25" fill-rule="evenodd" fill="#FFFFDE" width="52.65" height="72.7"/>
		
			<rect x="792.7" y="158.25" fill-rule="evenodd" fill="none" stroke="#F2DBB5" stroke-width="2" stroke-miterlimit="10" width="52.65" height="72.7"/>
	</g>
	<g>
		<rect x="845.35" y="158.25" fill-rule="evenodd" fill="#FFFFDE" width="54.7" height="72.7"/>
		
			<rect x="845.35" y="158.25" fill-rule="evenodd" fill="none" stroke="#F2DBB5" stroke-width="2" stroke-miterlimit="10" width="54.7" height="72.7"/>
	</g>
	<g>
		<rect x="900.05" y="158.25" fill-rule="evenodd" fill="#FFFFDE" width="53.3" height="72.7"/>
		
			<rect x="900.05" y="158.25" fill-rule="evenodd" fill="none" stroke="#F2DBB5" stroke-width="2" stroke-miterlimit="10" width="53.3" height="72.7"/>
	</g>
	<g>
		<rect x="953.4" y="158.25" fill-rule="evenodd" fill="#FFFFDE" width="58.4" height="72.7"/>
		
			<rect x="953.4" y="158.25" fill-rule="evenodd" fill="none" stroke="#F2DBB5" stroke-width="2" stroke-miterlimit="10" width="58.4" height="72.7"/>
	</g>
	<g>
		<rect x="267.4" y="310.95" fill-rule="evenodd" fill="#FFFFDE" width="52" height="74.65"/>
		
			<rect x="267.4" y="310.95" fill-rule="evenodd" fill="none" stroke="#F2DBB5" stroke-width="2" stroke-miterlimit="10" width="52" height="74.65"/>
	</g>
	<g>
		<rect x="319.4" y="310.95" fill-rule="evenodd" fill="#FFFFDE" width="53.35" height="72.3"/>
		
			<rect x="319.4" y="310.95" fill-rule="evenodd" fill="none" stroke="#F2DBB5" stroke-width="2" stroke-miterlimit="10" width="53.35" height="72.3"/>
	</g>
	<g>
		<rect x="372.75" y="310.95" fill-rule="evenodd" fill="#FFFFDE" width="52" height="72.3"/>
		
			<rect x="372.75" y="310.95" fill-rule="evenodd" fill="none" stroke="#F2DBB5" stroke-width="2" stroke-miterlimit="10" width="52" height="72.3"/>
	</g>
	<g>
		<rect x="424.75" y="310.95" fill-rule="evenodd" fill="#FFFFDE" width="52" height="72.3"/>
		
			<rect x="424.75" y="310.95" fill-rule="evenodd" fill="none" stroke="#F2DBB5" stroke-width="2" stroke-miterlimit="10" width="52" height="72.3"/>
	</g>
	<g>
		<rect x="476.75" y="310.95" fill-rule="evenodd" fill="#FFFFDE" width="55.35" height="72.3"/>
		
			<rect x="476.75" y="310.95" fill-rule="evenodd" fill="none" stroke="#F2DBB5" stroke-width="2" stroke-miterlimit="10" width="55.35" height="72.3"/>
	</g>
	<g>
		<rect x="532.1" y="310.95" fill-rule="evenodd" fill="#FFFFDE" width="52" height="72.3"/>
		
			<rect x="532.1" y="310.95" fill-rule="evenodd" fill="none" stroke="#F2DBB5" stroke-width="2" stroke-miterlimit="10" width="52" height="72.3"/>
	</g>
	<g>
		<rect x="635.4" y="310.95" fill-rule="evenodd" fill="#FDFFDD" width="52.7" height="72.3"/>
		
			<rect x="635.4" y="310.95" fill-rule="evenodd" fill="none" stroke="#F2DBB5" stroke-width="2" stroke-miterlimit="10" width="52.7" height="72.3"/>
	</g>
	<g>
		<rect x="688.1" y="310.95" fill-rule="evenodd" fill="#FFFFDE" width="53.95" height="71.3"/>
		
			<rect x="688.1" y="310.95" fill-rule="evenodd" fill="none" stroke="#F2DBB5" stroke-width="2" stroke-miterlimit="10" width="53.95" height="71.3"/>
	</g>
	<rect x="247.372" y="248.95" fill-rule="evenodd" fill="#FFFFDE" width="605.288" height="44.65"/>
	<g>
		<rect x="584.1" y="158.25" fill-rule="evenodd" fill="#FFFFDE" width="51.3" height="72.7"/>
		
			<rect x="584.1" y="158.25" fill-rule="evenodd" fill="none" stroke="#F2DBB5" stroke-width="2" stroke-miterlimit="10" width="51.3" height="72.7"/>
	</g>
	<g>
		<rect x="584.1" y="310.95" fill-rule="evenodd" fill="#FFFFDE" width="51.3" height="72.3"/>
		
			<rect x="584.1" y="310.95" fill-rule="evenodd" fill="none" stroke="#F2DBB5" stroke-width="2" stroke-miterlimit="10" width="51.3" height="72.3"/>
	</g>
	<g>
		<rect x="1009.491" y="142.25" fill-rule="evenodd" fill="#FFE8C5" width="156.433" height="88.7"/>
		
			<rect x="1009.491" y="142.25" fill-rule="evenodd" fill="none" stroke="#F2DBB5" stroke-width="2" stroke-miterlimit="10" width="156.433" height="88.7"/>
	</g>
	<g>
		<rect x="1434.805" y="142.23" fill-rule="evenodd" fill="#FFE8C5" width="158.722" height="88.743"/>
		
			<rect x="1434.805" y="142.23" fill-rule="evenodd" fill="none" stroke="#F2DBB5" stroke-width="2" stroke-miterlimit="10" width="158.722" height="88.743"/>
	</g>
	<g>
		<rect x="1439" y="385.237" fill-rule="evenodd" fill="#FFE8C5" width="81.85" height="123.817"/>
		
			<rect x="1439" y="385.237" fill-rule="evenodd" fill="none" stroke="#F2DBB5" stroke-width="2" stroke-miterlimit="10" width="81.85" height="123.817"/>
	</g>
	<g>
		<rect x="1518.502" y="385.26" fill-rule="evenodd" fill="#FFE9EE" width="114.419" height="123.079"/>
		
			<rect x="1518.502" y="385.26" fill-rule="evenodd" fill="none" stroke="#F1B3C6" stroke-width="2" stroke-miterlimit="10" width="114.419" height="123.079"/>
	</g>
	<g>
		<rect x="143.4" y="158.25" fill-rule="evenodd" fill="#DDD3FF" width="78" height="106.4"/>
		
			<rect x="143.4" y="158.25" fill-rule="evenodd" fill="none" stroke="#BDB0E4" stroke-width="2" stroke-miterlimit="10" width="78" height="106.4"/>
	</g>
	<g>
		<rect x="2133.35" y="279.95" fill-rule="evenodd" fill="#DAD7FE" width="56.65" height="40.35"/>
		
			<rect x="2133.35" y="279.95" fill-rule="evenodd" fill="none" stroke="#B9B5E3" stroke-width="2" stroke-miterlimit="10" width="56.65" height="40.35"/>
	</g>
	<g>
		<rect x="967" y="386.706" fill-rule="evenodd" fill="#EAF1FC" width="114.5" height="119.822"/>
		
			<rect x="967" y="386.706" fill-rule="evenodd" fill="none" stroke="#B2C7E0" stroke-width="2" stroke-miterlimit="10" width="114.5" height="119.822"/>
	</g>
	<g>
		<rect x="57.05" y="158.25" fill-rule="evenodd" fill="#DEDFDE" width="86.35" height="84.05"/>
		
			<rect x="57.05" y="158.25" fill-rule="evenodd" fill="none" stroke="#C8C4C7" stroke-width="2" stroke-miterlimit="10" width="86.35" height="84.05"/>
	</g>
	<g>
		<rect x="2189" y="279.95" fill-rule="evenodd" fill="#DEDFDE" width="62.05" height="40.35"/>
		
			<rect x="2189" y="279.95" fill-rule="evenodd" fill="none" stroke="#C8C4C7" stroke-width="2" stroke-miterlimit="10" width="62.05" height="40.35"/>
	</g>
	<g>
		<rect x="1759.449" y="313.511" fill-rule="evenodd" fill="#DEDFDE" width="109.701" height="71.164"/>
		
			<rect x="1759.449" y="313.511" fill-rule="evenodd" fill="none" stroke="#C8C4C7" stroke-width="2" stroke-miterlimit="10" width="109.701" height="71.164"/>
	</g>
	<g>
		<rect x="742.05" y="310.95" fill-rule="evenodd" fill="#DEDFDE" width="110.65" height="71.3"/>
		
			<rect x="742.05" y="310.95" fill-rule="evenodd" fill="none" stroke="#C8C4C7" stroke-width="2" stroke-miterlimit="10" width="110.65" height="71.3"/>
	</g>
	
		<line fill-rule="evenodd" fill="none" stroke="#C8C4C7" stroke-width="2" stroke-miterlimit="10" x1="2133.35" y1="351.45" x2="2209" y2="351.45"/>
	
		<line fill-rule="evenodd" fill="none" stroke="#C8C4C7" stroke-width="2" stroke-miterlimit="10" x1="2145.35" y1="321.225" x2="2145.35" y2="384.559"/>
	
		<line fill-rule="evenodd" fill="none" stroke="#C8C4C7" stroke-width="2" stroke-miterlimit="10" x1="2159.35" y1="321.225" x2="2159.35" y2="384.559"/>
	
		<line fill-rule="evenodd" fill="none" stroke="#C8C4C7" stroke-width="2" stroke-miterlimit="10" x1="2171.2" y1="321.3" x2="2171.2" y2="384.25"/>
	
		<line fill-rule="evenodd" fill="none" stroke="#C8C4C7" stroke-width="2" stroke-miterlimit="10" x1="2183.35" y1="321.3" x2="2183.35" y2="383.95"/>
	
		<line fill-rule="evenodd" fill="none" stroke="#C8C4C7" stroke-width="2" stroke-miterlimit="10" x1="2196" y1="320.313" x2="2196" y2="383.453"/>
	
		<line fill-rule="evenodd" fill="none" stroke="#C8C4C7" stroke-width="2" stroke-miterlimit="10" x1="2209" y1="320.3" x2="2209" y2="383.25"/>
	
		<line fill-rule="evenodd" fill="none" stroke="#C8C4C7" stroke-width="2" stroke-miterlimit="10" x1="2133.35" y1="321.225" x2="2133.35" y2="384.559"/>
	
		<line fill-rule="evenodd" fill="none" stroke="#C8C4C7" stroke-width="2" stroke-miterlimit="10" x1="1730.35" y1="449.95" x2="1798.8" y2="449.95"/>
	
		<line fill-rule="evenodd" fill="none" stroke="#C8C4C7" stroke-width="2" stroke-miterlimit="10" x1="1741.2" y1="421.8" x2="1741.2" y2="477.25"/>
	
		<line fill-rule="evenodd" fill="none" stroke="#C8C4C7" stroke-width="2" stroke-miterlimit="10" x1="1753.9" y1="421.8" x2="1753.9" y2="477.25"/>
	
		<line fill-rule="evenodd" fill="none" stroke="#C8C4C7" stroke-width="2" stroke-miterlimit="10" x1="1764.6" y1="421.8" x2="1764.6" y2="478.75"/>
	
		<line fill-rule="evenodd" fill="none" stroke="#C8C4C7" stroke-width="2" stroke-miterlimit="10" x1="1775.6" y1="421.8" x2="1775.6" y2="478.45"/>
	
		<line fill-rule="evenodd" fill="none" stroke="#C8C4C7" stroke-width="2" stroke-miterlimit="10" x1="1787.05" y1="421.8" x2="1787.05" y2="477.25"/>
	
		<line fill-rule="evenodd" fill="none" stroke="#C8C4C7" stroke-width="2" stroke-miterlimit="10" x1="1798.8" y1="421.8" x2="1798.8" y2="478.75"/>
	
		<line fill-rule="evenodd" fill="none" stroke="#C8C4C7" stroke-width="2" stroke-miterlimit="10" x1="1730.35" y1="421.8" x2="1730.35" y2="477.25"/>
	
		<line fill-rule="evenodd" fill="none" stroke="#C8C4C7" stroke-width="2" stroke-miterlimit="10" x1="84.95" y1="317.35" x2="84.95" y2="253.75"/>
	
		<line fill-rule="evenodd" fill="none" stroke="#C8C4C7" stroke-width="2" stroke-miterlimit="10" x1="59.25" y1="307.3" x2="110.85" y2="307.3"/>
	
		<line fill-rule="evenodd" fill="none" stroke="#C8C4C7" stroke-width="2" stroke-miterlimit="10" x1="59.25" y1="295.5" x2="110.85" y2="295.5"/>
	
		<line fill-rule="evenodd" fill="none" stroke="#C8C4C7" stroke-width="2" stroke-miterlimit="10" x1="58.75" y1="285.55" x2="111.75" y2="285.55"/>
	
		<line fill-rule="evenodd" fill="none" stroke="#C8C4C7" stroke-width="2" stroke-miterlimit="10" x1="58.75" y1="275.3" x2="111.45" y2="275.3"/>
	
		<line fill-rule="evenodd" fill="none" stroke="#C8C4C7" stroke-width="2" stroke-miterlimit="10" x1="59.15" y1="264.65" x2="110.75" y2="264.65"/>
	
		<line fill-rule="evenodd" fill="none" stroke="#C8C4C7" stroke-width="2" stroke-miterlimit="10" x1="844.55" y1="493.55" x2="875.2" y2="493.55"/>
	
		<line fill-rule="evenodd" fill="none" stroke="#C8C4C7" stroke-width="2" stroke-miterlimit="10" x1="849.4" y1="480.95" x2="849.4" y2="505.75"/>
	
		<line fill-rule="evenodd" fill="none" stroke="#C8C4C7" stroke-width="2" stroke-miterlimit="10" x1="855.1" y1="480.95" x2="855.1" y2="505.75"/>
	
		<line fill-rule="evenodd" fill="none" stroke="#C8C4C7" stroke-width="2" stroke-miterlimit="10" x1="859.9" y1="480.95" x2="859.9" y2="506.45"/>
	
		<line fill-rule="evenodd" fill="none" stroke="#C8C4C7" stroke-width="2" stroke-miterlimit="10" x1="864.8" y1="480.95" x2="864.8" y2="506.3"/>
	
		<line fill-rule="evenodd" fill="none" stroke="#C8C4C7" stroke-width="2" stroke-miterlimit="10" x1="869.95" y1="480.95" x2="869.95" y2="505.75"/>
	
		<line fill-rule="evenodd" fill="none" stroke="#C8C4C7" stroke-width="2" stroke-miterlimit="10" x1="875.2" y1="480.95" x2="875.2" y2="506.45"/>
	
		<line fill-rule="evenodd" fill="none" stroke="#C8C4C7" stroke-width="2" stroke-miterlimit="10" x1="844.55" y1="480.95" x2="844.55" y2="505.75"/>
	
		<line fill-rule="evenodd" fill="none" stroke="#C8C4C7" stroke-width="2" stroke-miterlimit="10" x1="844.55" y1="423.65" x2="875.2" y2="423.65"/>
	
		<line fill-rule="evenodd" fill="none" stroke="#C8C4C7" stroke-width="2" stroke-miterlimit="10" x1="849.4" y1="411.05" x2="849.4" y2="435.85"/>
	
		<line fill-rule="evenodd" fill="none" stroke="#C8C4C7" stroke-width="2" stroke-miterlimit="10" x1="855.1" y1="411" x2="855.1" y2="435.85"/>
	
		<line fill-rule="evenodd" fill="none" stroke="#C8C4C7" stroke-width="2" stroke-miterlimit="10" x1="859.9" y1="411.05" x2="859.9" y2="436.55"/>
	
		<line fill-rule="evenodd" fill="none" stroke="#C8C4C7" stroke-width="2" stroke-miterlimit="10" x1="864.8" y1="411.05" x2="864.8" y2="436.4"/>
	
		<line fill-rule="evenodd" fill="none" stroke="#C8C4C7" stroke-width="2" stroke-miterlimit="10" x1="869.95" y1="411.05" x2="869.95" y2="435.85"/>
	
		<line fill-rule="evenodd" fill="none" stroke="#C8C4C7" stroke-width="2" stroke-miterlimit="10" x1="875.2" y1="411" x2="875.2" y2="436.55"/>
	
		<line fill-rule="evenodd" fill="none" stroke="#C8C4C7" stroke-width="2" stroke-miterlimit="10" x1="844.55" y1="411.05" x2="844.55" y2="435.85"/>
	
		<line fill-rule="evenodd" fill="none" stroke="#C8C4C7" stroke-width="2" stroke-miterlimit="10" x1="818.5" y1="442.65" x2="818.5" y2="473.25"/>
	
		<line fill-rule="evenodd" fill="none" stroke="#C8C4C7" stroke-width="2" stroke-miterlimit="10" x1="831.1" y1="447.5" x2="806.3" y2="447.5"/>
	
		<line fill-rule="evenodd" fill="none" stroke="#C8C4C7" stroke-width="2" stroke-miterlimit="10" x1="831.1" y1="453.15" x2="806.3" y2="453.15"/>
	
		<line fill-rule="evenodd" fill="none" stroke="#C8C4C7" stroke-width="2" stroke-miterlimit="10" x1="831.1" y1="457.95" x2="805.6" y2="457.95"/>
	
		<line fill-rule="evenodd" fill="none" stroke="#C8C4C7" stroke-width="2" stroke-miterlimit="10" x1="831.1" y1="462.85" x2="805.75" y2="462.85"/>
	
		<line fill-rule="evenodd" fill="none" stroke="#C8C4C7" stroke-width="2" stroke-miterlimit="10" x1="831.1" y1="468" x2="806.3" y2="468"/>
	
		<line fill-rule="evenodd" fill="none" stroke="#C8C4C7" stroke-width="2" stroke-miterlimit="10" x1="831.1" y1="473.25" x2="805.6" y2="473.25"/>
	
		<line fill-rule="evenodd" fill="none" stroke="#C8C4C7" stroke-width="2" stroke-miterlimit="10" x1="831.1" y1="442.65" x2="806.3" y2="442.65"/>
	<path fill-rule="evenodd" fill="none" stroke="#C8C4C7" stroke-width="2" stroke-miterlimit="10" d="M1402.7,418v31.2v30.149h-13
		h-12.65h-12.2H1353h-14h-12V449.2V418h12h14h11.85h12.2h12.65H1402.7z M1402.7,449.2h-13v30.149 M1389.7,449.2h-12.65v30.149
		 M1389.7,418v31.2 M1364.85,418v31.2h12.2V418 M1364.85,479.35V449.2H1353v30.149 M1353,449.2h-14v30.149 M1353,449.2V418
		 M1339,418v31.2h-12"/>
	<polyline fill-rule="evenodd" fill="none" stroke="#BF8B62" stroke-width="5" stroke-miterlimit="10" points="1150,507.25 
		967,507.25 967,549.25 	"/>
	
		<line fill-rule="evenodd" fill="none" stroke="#F2DBB5" stroke-width="2" stroke-miterlimit="10" x1="550.05" y1="249.6" x2="550.05" y2="292.95"/>
	
		<line fill-rule="evenodd" fill="none" stroke="#F2DBB5" stroke-width="2" stroke-miterlimit="10" x1="475.4" y1="248.95" x2="475.4" y2="292.3"/>
	
		<line fill-rule="evenodd" fill="none" stroke="#F2DBB5" stroke-width="2" stroke-miterlimit="10" x1="398.75" y1="248.95" x2="398.75" y2="293.6"/>
	
		<line fill-rule="evenodd" fill="none" stroke="#F2DBB5" stroke-width="2" stroke-miterlimit="10" x1="324.4" y1="248.95" x2="324.4" y2="292.3"/>
	
		<line fill-rule="evenodd" fill="none" stroke="#F2DBB5" stroke-width="2" stroke-miterlimit="10" x1="672.75" y1="248.95" x2="672.75" y2="292.3"/>
	
		<line fill-rule="evenodd" fill="none" stroke="#F2DBB5" stroke-width="2" stroke-miterlimit="10" x1="732.35" y1="248.95" x2="732.35" y2="293.6"/>
	
		<line fill-rule="evenodd" fill="none" stroke="#F2DBB5" stroke-width="2" stroke-miterlimit="10" x1="792.7" y1="248.95" x2="792.7" y2="293.6"/>
	
		<line fill-rule="evenodd" fill="none" stroke="#F2DBB5" stroke-width="2" stroke-miterlimit="10" x1="852.7" y1="248.95" x2="852.7" y2="293.6"/>
	<polyline fill-rule="evenodd" fill="none" stroke="#BF8B62" stroke-width="5" stroke-miterlimit="10" points="886,549.25 
		886,507.25 804,507.25 804,408.25 886,408.25 886,383.25 57.05,385.6 	"/>
	<g>
		<rect x="221.4" y="158.25" fill-rule="evenodd" fill="#FFFFDE" width="52" height="72.7"/>
		
			<rect x="221.4" y="158.25" fill-rule="evenodd" fill="none" stroke="#F2DBB5" stroke-width="2" stroke-miterlimit="10" width="52" height="72.7"/>
	</g>
	<polyline fill-rule="evenodd" fill="none" stroke="#C8C4C7" stroke-width="2" stroke-miterlimit="10" points="58.75,253.75 
		111.75,253.75 111.75,317.35 58.75,317.35 	"/>
	<path fill-rule="evenodd" fill="none" stroke="#BF8B62" stroke-width="5" stroke-miterlimit="10" d="M57.05,332.35v-174.1H1009v-16
		h108l12.5-10.85c10.9-8.7,22.867-16.667,35.9-23.9c41.699-23.167,86.083-34.75,133.149-34.75c47.101,0,91.733,11.583,133.9,34.75
		c13.167,7.233,25.3,15.2,36.399,23.9c5.567,4.333,9.801,7.95,12.7,10.85"/>
	<g>
		<rect x="1376.6" y="142.25" fill-rule="evenodd" fill="#FFE8C5" width="62.45" height="88.7"/>
		
			<rect x="1376.6" y="142.25" fill-rule="evenodd" fill="none" stroke="#F2DBB5" stroke-width="2" stroke-miterlimit="10" width="62.45" height="88.7"/>
	</g>
	<g>
		<rect x="1164.431" y="142.23" fill-rule="evenodd" fill="#FFE8C5" width="62.493" height="88.743"/>
		
			<rect x="1164.431" y="142.23" fill-rule="evenodd" fill="none" stroke="#F2DBB5" stroke-width="2" stroke-miterlimit="10" width="62.493" height="88.743"/>
	</g>
	
		<line fill-rule="evenodd" fill="none" stroke="#F2DBB5" stroke-width="2" stroke-miterlimit="10" x1="610.05" y1="249.6" x2="610.05" y2="292.95"/>
	
		<line fill-rule="evenodd" fill="none" stroke="#F2DBB5" stroke-width="2" stroke-miterlimit="10" x1="672.75" y1="248.95" x2="672.75" y2="292.3"/>
	<rect x="1759.338" y="249.75" fill-rule="evenodd" fill="#FFFFDE" width="305.621" height="44.65"/>
	
		<line fill-rule="evenodd" fill="none" stroke="#F2DBB5" stroke-width="2" stroke-miterlimit="10" x1="1759.35" y1="249.772" x2="1759.35" y2="294.371"/>
	
		<line fill-rule="evenodd" fill="none" stroke="#F2DBB5" stroke-width="2" stroke-linecap="square" stroke-miterlimit="10" x1="2064.949" y1="250.722" x2="2064.949" y2="293.396"/>
	
		<line fill-rule="evenodd" fill="none" stroke="#F2DBB5" stroke-width="2" stroke-miterlimit="10" x1="1831.35" y1="249.75" x2="1831.35" y2="294.44"/>
	
		<line fill-rule="evenodd" fill="none" stroke="#F2DBB5" stroke-width="2" stroke-linecap="square" stroke-miterlimit="10" x1="1912.1" y1="250.721" x2="1912.1" y2="293.404"/>
	
		<line fill-rule="evenodd" fill="none" stroke="#F2DBB5" stroke-width="2" stroke-linecap="square" stroke-miterlimit="10" x1="1987.35" y1="250.752" x2="1987.35" y2="293.432"/>
	<g>
		<rect x="1672.647" y="158.852" fill-rule="evenodd" fill="#FFE8C5" width="74.313" height="72.115"/>
		
			<rect x="1672.647" y="158.852" fill-rule="evenodd" fill="none" stroke="#F2DBB5" stroke-width="2" stroke-miterlimit="10" width="74.313" height="72.115"/>
	</g>
</g>
<g id="Layer_11">
	<polygon fill-rule="evenodd" fill="#E9E5E2" points="1325.9,478 1402.9,478 1402.9,507.25 1081.5,507.25 1081.5,382.25 
		1402.9,382.25 1402.9,418 1325.9,418 	"/>
</g>
<g id="Think_Algo2">
	<g>
		<path fill-rule="evenodd" fill="#FFFFDE" d="M1343.55,381.55V312V381.55z M1238.2,382.25V312.5V382.25h-51.9v-69.9v69.9h-53.45
			v-69.9v69.9h-51.9V312h262.6h51.9v70.25h-103.8V312.5v69.75H1238.2z"/>
		<path fill-rule="evenodd" fill="none" stroke="#EFDAB7" stroke-width="2" stroke-miterlimit="10" d="M1343.55,312h-262.6v70.25
			h51.9 M1343.55,312h51.9v70.25h-103.8h-53.45 M1186.3,382.25h51.9 M1186.3,382.25h-53.45"/>
		<path fill-rule="evenodd" fill="none" stroke="#F2DBB5" stroke-width="2" stroke-miterlimit="10" d="M1343.55,312v-0.35
			 M1343.55,381.55V312 M1132.85,382.25v-69.9 M1291.65,382.25v0.3 M1186.3,312.35v69.9 M1238.2,382.25V312.5 M1291.65,312.5v69.75"
			/>
	</g>
</g>
<g id="Indicator">
	<g>
		<rect x="831.35" y="435.6" fill-rule="evenodd" fill="#FB8888" width="54" height="44.7"/>
		
			<rect x="831.35" y="435.6" fill-rule="evenodd" fill="none" stroke="#B3645E" stroke-width="2" stroke-miterlimit="10" width="54" height="44.7"/>
	</g>
</g>
<g id="Layer_6">
	<g>
		<rect x="1593.264" y="158.25" fill-rule="evenodd" fill="#FFFFDE" width="80.24" height="72.7"/>
		
			<rect x="1593.264" y="158.25" fill-rule="evenodd" fill="none" stroke="#F2DBB5" stroke-width="2" stroke-miterlimit="10" width="80.24" height="72.7"/>
	</g>
	<g>
		<rect x="1733.183" y="158.25" fill-rule="evenodd" fill="#FFFFDE" width="79.297" height="72.7"/>
		
			<rect x="1733.183" y="158.25" fill-rule="evenodd" fill="none" stroke="#F2DBB5" stroke-width="2" stroke-miterlimit="10" width="79.297" height="72.7"/>
	</g>
	<g>
		<rect x="1812.07" y="158.25" fill-rule="evenodd" fill="#FFFFDE" width="58.563" height="72.7"/>
		
			<rect x="1812.07" y="158.25" fill-rule="evenodd" fill="none" stroke="#F2DBB5" stroke-width="2" stroke-miterlimit="10" width="58.563" height="72.7"/>
	</g>
	<g>
		<rect x="1869.055" y="158.25" fill-rule="evenodd" fill="#FFFFDE" width="56.081" height="72.7"/>
		
			<rect x="1869.055" y="158.25" fill-rule="evenodd" fill="none" stroke="#F2DBB5" stroke-width="2" stroke-miterlimit="10" width="56.081" height="72.7"/>
	</g>
	<g>
		<rect x="1925.098" y="158.25" fill-rule="evenodd" fill="#FFFFDE" width="54.156" height="72.7"/>
		
			<rect x="1925.098" y="158.25" fill-rule="evenodd" fill="none" stroke="#F2DBB5" stroke-width="2" stroke-miterlimit="10" width="54.156" height="72.7"/>
	</g>
	<g>
		<rect x="1979.248" y="158.25" fill-rule="evenodd" fill="#FFFFDE" width="54.155" height="72.7"/>
		
			<rect x="1979.248" y="158.25" fill-rule="evenodd" fill="none" stroke="#F2DBB5" stroke-width="2" stroke-miterlimit="10" width="54.155" height="72.7"/>
	</g>
	<g>
		<rect x="2033.397" y="158.25" fill-rule="evenodd" fill="#FFFFDE" width="54.156" height="72.7"/>
		
			<rect x="2033.397" y="158.25" fill-rule="evenodd" fill="none" stroke="#F2DBB5" stroke-width="2" stroke-miterlimit="10" width="54.156" height="72.7"/>
	</g>
	<g>
		<rect x="2087.197" y="158.25" fill-rule="evenodd" fill="#FFFFDE" width="54.156" height="72.7"/>
		
			<rect x="2087.197" y="158.25" fill-rule="evenodd" fill="none" stroke="#F2DBB5" stroke-width="2" stroke-miterlimit="10" width="54.156" height="72.7"/>
	</g>
	<g>
		<rect x="2141.348" y="158.25" fill-rule="evenodd" fill="#FFFFDE" width="54.155" height="72.7"/>
		
			<rect x="2141.348" y="158.25" fill-rule="evenodd" fill="none" stroke="#F2DBB5" stroke-width="2" stroke-miterlimit="10" width="54.155" height="72.7"/>
	</g>
	<g>
		<rect x="2195.498" y="158.25" fill-rule="evenodd" fill="#FFFFDE" width="54.155" height="72.7"/>
		
			<rect x="2195.498" y="158.25" fill-rule="evenodd" fill="none" stroke="#F2DBB5" stroke-width="2" stroke-miterlimit="10" width="54.155" height="72.7"/>
	</g>
	<g>
		<rect x="2031.397" y="320.282" fill-rule="evenodd" fill="#FFFFDE" width="54.156" height="64.836"/>
		
			<rect x="2031.397" y="320.282" fill-rule="evenodd" fill="none" stroke="#F2DBB5" stroke-width="2" stroke-miterlimit="10" width="54.156" height="64.836"/>
	</g>
	<g>
		<rect x="1977.248" y="320.291" fill-rule="evenodd" fill="#FFFFDE" width="54.155" height="64.472"/>
		
			<rect x="1977.248" y="320.291" fill-rule="evenodd" fill="none" stroke="#F2DBB5" stroke-width="2" stroke-miterlimit="10" width="54.155" height="64.472"/>
	</g>
	<g>
		<rect x="1923.098" y="320.291" fill-rule="evenodd" fill="#FFFFDE" width="54.156" height="64.472"/>
		
			<rect x="1923.098" y="320.291" fill-rule="evenodd" fill="none" stroke="#F2DBB5" stroke-width="2" stroke-miterlimit="10" width="54.156" height="64.472"/>
	</g>
	<g>
		<rect x="1869.097" y="320.291" fill-rule="evenodd" fill="#FFFFDE" width="53.999" height="64.472"/>
		
			<rect x="1869.097" y="320.291" fill-rule="evenodd" fill="none" stroke="#F2DBB5" stroke-width="2" stroke-miterlimit="10" width="53.999" height="64.472"/>
	</g>
</g>
<g id="Layer_7">
	<g>
		<path fill-rule="evenodd" fill="none" stroke="#BF8B62" stroke-width="5" stroke-miterlimit="10" d="M1720,385.6v35.65v0.55
			 M1820.05,421.25v57"/>
		
			<polyline fill-rule="evenodd" fill="none" stroke="#BF8B62" stroke-width="5" stroke-linecap="round" stroke-miterlimit="10" points="
			1481.55,142.25 1593.6,142.25 1593.6,158.25 2249.65,158.25 2249.65,385.6 		"/>
		<path fill-rule="evenodd" fill="none" stroke="#BF8B62" stroke-width="5" stroke-linecap="square" stroke-miterlimit="10" d="
			M2249.65,385.6H1720 M1720,421.25h100.05 M1820.05,478.25h-100V513"/>
	</g>
</g>
<g id="Place">
	<g>
		<path fill-rule="evenodd" fill="#FFFFDE" d="M1733.9,284.25V317h-45.4h-45.4H1599.9v-32.75V251.5h43.199h45.4h45.4V284.25h-45.4
			V317v-32.75H1733.9z M1643.1,251.5v32.75h45.4V251.5v32.75h-45.4V251.5z M1643.1,284.25V317V284.25H1599.9H1643.1z M1406.95,255.5
			v38.9h-60.25h-60.25h-60h-59.3H1107.8h-59.95h-19.9v-38.9h19.9h59.95h59.351h59.3h60h60.25H1406.95z M1426.4,252.5h42.05h45.7
			h45.75v32.75V318h-45.75h-45.7h-42.05v-32.75V252.5z M1346.7,255.5v38.9V255.5z M1468.45,252.5v32.75h45.7V252.5v32.75h-45.7
			V252.5z M1559.9,285.25h-45.75V318v-32.75H1559.9z M1468.45,285.25V318V285.25h-42.05H1468.45z M1447.1,596.6V663.9V596.6z
			 M1153.8,663.9h-80.65V596.6h80.65h104h87.3h102h84V663.9h-84h-102V596.6V663.9h-87.3V596.6V663.9H1153.8V596.6V663.9z
			 M1107.8,255.5v38.9V255.5z M1004.95,285.45v35h-44.5h-44.5h-42.5v-35V250.5h42.5h44.5h44.5V285.45h-44.5v35v-35H1004.95z
			 M1047.85,255.5v38.9V255.5z M1226.45,255.5v38.9V255.5z M1286.45,255.5v38.9V255.5z M1167.15,255.5v38.9V255.5z M915.95,250.5
			v34.95h44.5V250.5v34.95h-44.5V250.5z M915.95,285.45v35V285.45z M873.45,285.45h42.5H873.45z"/>
		<path fill-rule="evenodd" fill="none" stroke="#F2DBB5" stroke-width="2" stroke-miterlimit="10" d="M1643.1,251.5v32.75h45.4
			V251.5 M1733.9,284.25h-45.4V317 M1643.1,284.25V317 M1406.95,255.5v38.9 M1346.7,255.5v38.9 M1468.45,252.5v32.75h45.7V252.5
			 M1559.9,285.25h-45.75V318 M1468.45,285.25V318 M1426.4,285.25h42.05 M1447.1,596.6V663.9 M1345.1,596.6V663.9 M1599.9,284.25
			h43.199 M1107.8,255.5v38.9 M1047.85,255.5v38.9 M1226.45,255.5v38.9 M1286.45,255.5v38.9 M1167.15,255.5v38.9 M1073.15,663.9
			V596.6 M1257.8,596.6V663.9 M1153.8,596.6V663.9"/>
		<path fill-rule="evenodd" fill="none" stroke="#EFDAB7" stroke-width="2" stroke-miterlimit="10" d="M915.95,250.5v34.95h44.5
			V250.5 M1004.95,285.45h-44.5v35 M915.95,285.45v35 M873.45,285.45h42.5"/>
	</g>
</g>
<g id="Layer_14">
	<g>
		<rect x="966.026" y="669.001" fill-rule="evenodd" fill="#DDD3FF" width="78.923" height="94.191"/>
		
			<rect x="966.026" y="669.001" fill-rule="evenodd" fill="none" stroke="#BDB0E4" stroke-width="2" stroke-miterlimit="10" width="78.923" height="94.191"/>
	</g>
</g>
<g id="Think_Algo">
	<g>
		<path fill-rule="evenodd" fill="#FFFFDE" d="M1299,574.9h-57.65V507H1299V574.9V507h51.9h44.949v67.9H1350.9H1299z M1350.9,507
			v67.9V507z M1189.4,574.9H1133.3h-48.55V507h48.55h56.101V574.9V507h51.949v67.9H1189.4z M1133.3,507v67.9V507z"/>
		<path fill-rule="evenodd" fill="none" stroke="#EFDAB7" stroke-width="2" stroke-miterlimit="10" d="M1350.9,507h44.949v67.9
			H1350.9H1299h-57.65 M1299,507h51.9 M1189.4,507h51.949H1299 M1189.4,574.9h51.949 M1189.4,574.9H1133.3h-48.55V507h48.55h56.101"
			/>
		<path fill-rule="evenodd" fill="none" stroke="#F2DBB5" stroke-width="2" stroke-miterlimit="10" d="M1350.9,506.2v0.8v67.9
			 M1299,574.9v0.3 M1299,506.35V507v67.9 M1189.4,506.15V507v67.9 M1241.35,507v-0.85 M1241.35,574.9V507 M1133.3,507v67.9"/>
	</g>
</g>
<g id="Layer_2">
	<g>
		<rect x="1498.384" y="686.317" fill-rule="evenodd" fill="#DDD3FF" width="39.005" height="77.92"/>
		
			<rect x="1498.384" y="686.317" fill-rule="evenodd" fill="none" stroke="#BDB0E4" stroke-width="2" stroke-miterlimit="10" width="39.005" height="77.92"/>
	</g>
	<g>
		<rect x="1044.9" y="686.251" fill-rule="evenodd" fill="#FFFFDE" width="53.3" height="77.594"/>
		
			<rect x="1044.9" y="686.251" fill-rule="evenodd" fill="none" stroke="#F2DBB5" stroke-width="2" stroke-miterlimit="10" width="53.3" height="77.594"/>
	</g>
	<g>
		<rect x="1097.4" y="686.201" fill-rule="evenodd" fill="#FFFFDE" width="53.3" height="77.594"/>
		
			<rect x="1097.4" y="686.201" fill-rule="evenodd" fill="none" stroke="#F2DBB5" stroke-width="2" stroke-miterlimit="10" width="53.3" height="77.594"/>
	</g>
	<g>
		<rect x="1150.699" y="686.212" fill-rule="evenodd" fill="#FFFFDE" width="53.301" height="78.747"/>
		
			<rect x="1150.699" y="686.212" fill-rule="evenodd" fill="none" stroke="#F2DBB5" stroke-width="2" stroke-miterlimit="10" width="53.301" height="78.747"/>
	</g>
	<g>
		<rect x="1449.553" y="686.229" fill-rule="evenodd" fill="#FFFFDE" width="48.887" height="76.595"/>
		
			<rect x="1449.553" y="686.229" fill-rule="evenodd" fill="none" stroke="#F2DBB5" stroke-width="2" stroke-miterlimit="10" width="48.887" height="76.595"/>
	</g>
	<g>
		<rect x="1401.746" y="686.229" fill-rule="evenodd" fill="#FFFFDE" width="48.634" height="76.595"/>
		
			<rect x="1401.746" y="686.229" fill-rule="evenodd" fill="none" stroke="#F2DBB5" stroke-width="2" stroke-miterlimit="10" width="48.634" height="76.595"/>
	</g>
	<g>
		<rect x="1354.799" y="686.229" fill-rule="evenodd" fill="#FFFFDE" width="47.903" height="76.595"/>
		
			<rect x="1354.799" y="686.229" fill-rule="evenodd" fill="none" stroke="#F2DBB5" stroke-width="2" stroke-miterlimit="10" width="47.903" height="76.595"/>
	</g>
	<g>
		<rect x="1303.188" y="686.229" fill-rule="evenodd" fill="#FFFFDE" width="51.677" height="76.595"/>
		
			<rect x="1303.188" y="686.229" fill-rule="evenodd" fill="none" stroke="#F2DBB5" stroke-width="2" stroke-miterlimit="10" width="51.677" height="76.595"/>
	</g>
	<g>
		<rect x="1252.556" y="686.229" fill-rule="evenodd" fill="#FFFFDE" width="52.629" height="76.595"/>
		
			<rect x="1252.556" y="686.229" fill-rule="evenodd" fill="none" stroke="#F2DBB5" stroke-width="2" stroke-miterlimit="10" width="52.629" height="76.595"/>
	</g>
	<g>
		<rect x="1199.9" y="686.239" fill-rule="evenodd" fill="#FFFFDE" width="52.649" height="78.699"/>
		
			<rect x="1199.9" y="686.239" fill-rule="evenodd" fill="none" stroke="#F2DBB5" stroke-width="2" stroke-miterlimit="10" width="52.649" height="78.699"/>
	</g>
	<g>
		<rect x="1558.214" y="658.781" fill-rule="evenodd" fill="#FFFFDE" width="77.272" height="56.521"/>
		
			<rect x="1558.214" y="658.781" fill-rule="evenodd" fill="none" stroke="#F2DBB5" stroke-width="2" stroke-miterlimit="10" width="77.272" height="56.521"/>
	</g>
	<g>
		<polygon fill-rule="evenodd" fill="#FFFFDE" points="1635.559,621.199 1635.559,667.976 1558.217,668.044 1558.217,621.268 		"/>
		<polygon fill-rule="evenodd" fill="none" stroke="#F2DBB5" stroke-width="2" stroke-miterlimit="10" points="1635.559,621.199 
			1635.559,667.976 1558.217,668.044 1558.217,621.268 		"/>
	</g>
	<g>
		
			<rect x="1556.115" y="500.411" transform="matrix(1.418153e-04 -1 1 1.418153e-04 1048.1504 2132.6565)" fill-rule="evenodd" fill="#FFFFDE" width="68.88" height="83.535"/>
		
			<rect x="1556.115" y="500.411" transform="matrix(1.418153e-04 -1 1 1.418153e-04 1048.1504 2132.6565)" fill-rule="evenodd" fill="none" stroke="#F2DBB5" stroke-width="2" stroke-miterlimit="10" width="68.88" height="83.535"/>
	</g>
	<g>
		
			<rect x="1488.249" y="513.666" transform="matrix(3.686706e-04 -1 1 3.686706e-04 980.1365 2064.4802)" fill-rule="evenodd" fill="#FFFFDE" width="68.88" height="56.651"/>
		
			<rect x="1488.249" y="513.666" transform="matrix(3.686706e-04 -1 1 3.686706e-04 980.1365 2064.4802)" fill-rule="evenodd" fill="none" stroke="#F2DBB5" stroke-width="2" stroke-miterlimit="10" width="68.88" height="56.651"/>
	</g>
	<g>
		
			<rect x="1432.848" y="513.673" transform="matrix(3.828565e-04 -1 1 3.828565e-04 924.7278 2009.079)" fill-rule="evenodd" fill="#FFFFDE" width="68.88" height="56.651"/>
		
			<rect x="1432.848" y="513.673" transform="matrix(3.828565e-04 -1 1 3.828565e-04 924.7278 2009.079)" fill-rule="evenodd" fill="none" stroke="#F2DBB5" stroke-width="2" stroke-miterlimit="10" width="68.88" height="56.651"/>
	</g>
	<g>
		<polygon fill-rule="evenodd" fill="#FFFFDE" points="966.046,622.943 1040.786,622.943 1041.16,669.015 966.42,669.015 		"/>
		<polygon fill-rule="evenodd" fill="none" stroke="#F2DBB5" stroke-width="2" stroke-miterlimit="10" points="966.046,622.943 
			1040.786,622.943 1041.16,669.015 966.42,669.015 		"/>
	</g>
	<g>
		<rect x="1537.416" y="713.453" fill-rule="evenodd" fill="#FFFFDE" width="98.8" height="48.79"/>
		
			<rect x="1537.416" y="713.453" fill-rule="evenodd" fill="none" stroke="#F2DBB5" stroke-width="2" stroke-miterlimit="10" width="98.8" height="48.79"/>
	</g>
</g>
<g id="BaseToilet">
	<g>
		<rect x="143.4" y="264.162" fill-rule="evenodd" fill="#EAF1FC" width="78" height="41.593"/>
		
			<rect x="143.4" y="264.162" fill-rule="evenodd" fill="none" stroke="#B2C7E0" stroke-width="2" stroke-miterlimit="10" width="78" height="41.593"/>
	</g>
	<g>
		<rect x="143.4" y="305.162" fill-rule="evenodd" fill="#FFE9EE" width="78" height="41.593"/>
		
			<rect x="143.4" y="305.162" fill-rule="evenodd" fill="none" stroke="#F1B3C6" stroke-width="2" stroke-miterlimit="10" width="78" height="41.593"/>
	</g>
</g>
<g id="Layer_10">
	<g>
		<path fill-rule="evenodd" fill="none" stroke="#BF8B62" stroke-width="5" stroke-miterlimit="10" d="M1327,418h75.9v-35.75h-321.4
			v125h321.4v-27.9H1327V418z M1636.9,763.95V620.2 M967,539v37 M964.95,615v148.95"/>
		<path fill-rule="evenodd" fill="none" stroke="#BF8B62" stroke-width="5" stroke-linecap="square" stroke-miterlimit="10" d="
			M1633.9,575.35v-190.1 M964.95,763.95h671.95"/>
	</g>
</g>
</svg>
