<?xml version="1.0" encoding="utf-8"?>
<!-- Generator: Adobe Illustrator 16.0.0, SVG Export Plug-In . SVG Version: 6.00 Build 0)  -->
<svg version="1.2" baseProfile="tiny" xmlns="http://www.w3.org/2000/svg" xmlns:xlink="http://www.w3.org/1999/xlink" x="0px"
	 y="0px" width="2300px" height="870px" viewBox="0 0 2300 870" xml:space="preserve">
<g id="Background">
	<rect fill-rule="evenodd" fill="#EFEBE7" width="2301.9" height="870"/>
</g>
<g id="Layer_9">
	<path fill-rule="evenodd" fill="#FFFFFF" d="M1416.3,120.9c32.101,17.967,48.15,39.65,48.15,65.05c0,25.4-16.05,47.083-48.15,65.05
		c-32.066,17.967-70.783,26.95-116.149,26.95c-45.367,0-84.101-8.983-116.2-26.95c-32.067-17.967-48.1-39.65-48.1-65.05
		c0-25.4,16.033-47.083,48.1-65.05c32.1-17.967,70.833-26.95,116.2-26.95C1345.517,93.95,1384.233,102.933,1416.3,120.9z"/>
	<rect x="57.086" y="142.237" fill-rule="evenodd" fill="#FFFFFF" width="2193.97" height="243.35"/>
</g>
<g id="Layer_8">
	<rect x="886.1" y="294.4" fill-rule="evenodd" fill="#FFFFFF" width="833.7" height="521.9"/>
	<g>
		<polygon fill-rule="evenodd" fill="#FDFFDD" points="969,508.55 1021.85,508.15 1021.85,575 969,575.4 		"/>
		<polygon fill-rule="evenodd" fill="none" stroke="#F2DBB5" stroke-width="2" stroke-miterlimit="10" points="969,508.55 
			1021.85,508.15 1021.85,575 969,575.4 		"/>
	</g>
	<rect x="1009" y="142.25" fill-rule="evenodd" fill="#FFFFFF" width="189.7" height="16"/>
	<rect x="804" y="408.25" fill-rule="evenodd" fill="#FFFFFF" width="163" height="99"/>
	<rect x="886" y="383.25" fill-rule="evenodd" fill="#FFFFFF" width="81" height="25"/>
	<rect x="886" y="507.25" fill-rule="evenodd" fill="#FFFFFF" width="81" height="42"/>
	<rect x="967" y="439.75" fill-rule="evenodd" fill="#FFFFFF" width="469.7" height="67.5"/>
	<rect x="1081.5" y="382.25" fill-rule="evenodd" fill="#FFFFFF" width="355.2" height="57.5"/>
	<rect x="1199.05" y="325.25" fill-rule="evenodd" fill="#FFFFFF" width="199" height="60.35"/>
	<rect x="1720.05" y="421.25" fill-rule="evenodd" fill="#FFFFFF" width="100" height="57"/>
	<g>
		<rect x="267.4" y="140.25" fill-rule="evenodd" fill="#FFFFDE" width="52" height="72.7"/>
		
			<rect x="267.4" y="140.25" fill-rule="evenodd" fill="none" stroke="#F2DBB5" stroke-width="2" stroke-miterlimit="10" width="52" height="72.7"/>
	</g>
	<g>
		<rect x="319.4" y="140.25" fill-rule="evenodd" fill="#FFFFDE" width="53.35" height="72.7"/>
		
			<rect x="319.4" y="140.25" fill-rule="evenodd" fill="none" stroke="#F2DBB5" stroke-width="2" stroke-miterlimit="10" width="53.35" height="72.7"/>
	</g>
	<g>
		<rect x="372.75" y="140.25" fill-rule="evenodd" fill="#FFFFDE" width="52" height="72.7"/>
		
			<rect x="372.75" y="140.25" fill-rule="evenodd" fill="none" stroke="#F2DBB5" stroke-width="2" stroke-miterlimit="10" width="52" height="72.7"/>
	</g>
	<g>
		<rect x="424.75" y="140.25" fill-rule="evenodd" fill="#FFFFDE" width="52" height="72.7"/>
		
			<rect x="424.75" y="140.25" fill-rule="evenodd" fill="none" stroke="#F2DBB5" stroke-width="2" stroke-miterlimit="10" width="52" height="72.7"/>
	</g>
	<g>
		<rect x="476.75" y="140.25" fill-rule="evenodd" fill="#FFFFDE" width="55.35" height="72.7"/>
		
			<rect x="476.75" y="140.25" fill-rule="evenodd" fill="none" stroke="#F2DBB5" stroke-width="2" stroke-miterlimit="10" width="55.35" height="72.7"/>
	</g>
	<g>
		<rect x="532.1" y="140.25" fill-rule="evenodd" fill="#FFFFDE" width="52" height="72.7"/>
		
			<rect x="532.1" y="140.25" fill-rule="evenodd" fill="none" stroke="#F2DBB5" stroke-width="2" stroke-miterlimit="10" width="52" height="72.7"/>
	</g>
	<g>
		<rect x="635.4" y="140.25" fill-rule="evenodd" fill="#FFFFDE" width="52.7" height="72.7"/>
		
			<rect x="635.4" y="140.25" fill-rule="evenodd" fill="none" stroke="#F2DBB5" stroke-width="2" stroke-miterlimit="10" width="52.7" height="72.7"/>
	</g>
	<g>
		<rect x="688.1" y="140.25" fill-rule="evenodd" fill="#FFFFDE" width="53.95" height="72.7"/>
		
			<rect x="688.1" y="140.25" fill-rule="evenodd" fill="none" stroke="#F2DBB5" stroke-width="2" stroke-miterlimit="10" width="53.95" height="72.7"/>
	</g>
	<g>
		<rect x="742.05" y="140.25" fill-rule="evenodd" fill="#FFFFDE" width="50.65" height="72.7"/>
		
			<rect x="742.05" y="140.25" fill-rule="evenodd" fill="none" stroke="#F2DBB5" stroke-width="2" stroke-miterlimit="10" width="50.65" height="72.7"/>
	</g>
	<g>
		<rect x="792.7" y="140.25" fill-rule="evenodd" fill="#FFFFDE" width="52.65" height="72.7"/>
		
			<rect x="792.7" y="140.25" fill-rule="evenodd" fill="none" stroke="#F2DBB5" stroke-width="2" stroke-miterlimit="10" width="52.65" height="72.7"/>
	</g>
	<g>
		<rect x="845.35" y="140.25" fill-rule="evenodd" fill="#FFFFDE" width="54.7" height="72.7"/>
		
			<rect x="845.35" y="140.25" fill-rule="evenodd" fill="none" stroke="#F2DBB5" stroke-width="2" stroke-miterlimit="10" width="54.7" height="72.7"/>
	</g>
	<g>
		<rect x="900.05" y="140.25" fill-rule="evenodd" fill="#FFFFDE" width="53.3" height="72.7"/>
		
			<rect x="900.05" y="140.25" fill-rule="evenodd" fill="none" stroke="#F2DBB5" stroke-width="2" stroke-miterlimit="10" width="53.3" height="72.7"/>
	</g>
	<g>
		<rect x="953.35" y="140.25" fill-rule="evenodd" fill="#FFFFDE" width="55.65" height="72.7"/>
		
			<rect x="953.35" y="140.25" fill-rule="evenodd" fill="none" stroke="#F2DBB5" stroke-width="2" stroke-miterlimit="10" width="55.65" height="72.7"/>
	</g>
	<g>
		<rect x="267.4" y="310.95" fill-rule="evenodd" fill="#FFFFDE" width="52" height="74.65"/>
		
			<rect x="267.4" y="310.95" fill-rule="evenodd" fill="none" stroke="#F2DBB5" stroke-width="2" stroke-miterlimit="10" width="52" height="74.65"/>
	</g>
	<g>
		<rect x="319.4" y="310.95" fill-rule="evenodd" fill="#FFFFDE" width="53.35" height="72.3"/>
		
			<rect x="319.4" y="310.95" fill-rule="evenodd" fill="none" stroke="#F2DBB5" stroke-width="2" stroke-miterlimit="10" width="53.35" height="72.3"/>
	</g>
	<g>
		<rect x="372.75" y="310.95" fill-rule="evenodd" fill="#FFFFDE" width="52" height="72.3"/>
		
			<rect x="372.75" y="310.95" fill-rule="evenodd" fill="none" stroke="#F2DBB5" stroke-width="2" stroke-miterlimit="10" width="52" height="72.3"/>
	</g>
	<g>
		<rect x="424.75" y="310.95" fill-rule="evenodd" fill="#FFFFDE" width="52" height="72.3"/>
		
			<rect x="424.75" y="310.95" fill-rule="evenodd" fill="none" stroke="#F2DBB5" stroke-width="2" stroke-miterlimit="10" width="52" height="72.3"/>
	</g>
	<g>
		<rect x="476.75" y="310.95" fill-rule="evenodd" fill="#FFFFDE" width="55.35" height="72.3"/>
		
			<rect x="476.75" y="310.95" fill-rule="evenodd" fill="none" stroke="#F2DBB5" stroke-width="2" stroke-miterlimit="10" width="55.35" height="72.3"/>
	</g>
	<g>
		<rect x="532.1" y="310.95" fill-rule="evenodd" fill="#FFFFDE" width="52" height="72.3"/>
		
			<rect x="532.1" y="310.95" fill-rule="evenodd" fill="none" stroke="#F2DBB5" stroke-width="2" stroke-miterlimit="10" width="52" height="72.3"/>
	</g>
	<g>
		<rect x="635.4" y="310.95" fill-rule="evenodd" fill="#FFFFDE" width="52.7" height="72.3"/>
		
			<rect x="635.4" y="310.95" fill-rule="evenodd" fill="none" stroke="#F2DBB5" stroke-width="2" stroke-miterlimit="10" width="52.7" height="72.3"/>
	</g>
	<g>
		<rect x="688.1" y="310.95" fill-rule="evenodd" fill="#FFFFDE" width="53.95" height="71.3"/>
		
			<rect x="688.1" y="310.95" fill-rule="evenodd" fill="none" stroke="#F2DBB5" stroke-width="2" stroke-miterlimit="10" width="53.95" height="71.3"/>
	</g>
	<g>
		<rect x="584.1" y="140.25" fill-rule="evenodd" fill="#FFFFDE" width="51.3" height="72.7"/>
		
			<rect x="584.1" y="140.25" fill-rule="evenodd" fill="none" stroke="#F2DBB5" stroke-width="2" stroke-miterlimit="10" width="51.3" height="72.7"/>
	</g>
	<g>
		<rect x="584.1" y="310.95" fill-rule="evenodd" fill="#FFFFDE" width="51.3" height="72.3"/>
		
			<rect x="584.1" y="310.95" fill-rule="evenodd" fill="none" stroke="#F2DBB5" stroke-width="2" stroke-miterlimit="10" width="51.3" height="72.3"/>
	</g>
	<g>
		<rect x="1008.448" y="143.053" fill-rule="evenodd" fill="#FFE8C5" width="156.383" height="69.995"/>
		
			<rect x="1008.448" y="143.053" fill-rule="evenodd" fill="none" stroke="#F2DBB5" stroke-width="2" stroke-miterlimit="10" width="156.383" height="69.995"/>
	</g>
	<g>
		<rect x="1434.805" y="142.979" fill-rule="evenodd" fill="#FFE8C5" width="158.722" height="69.996"/>
		
			<rect x="1434.805" y="142.979" fill-rule="evenodd" fill="none" stroke="#F2DBB5" stroke-width="2" stroke-miterlimit="10" width="158.722" height="69.996"/>
	</g>
	<g>
		<rect x="1438.7" y="385.281" fill-rule="evenodd" fill="#FFE8C5" width="81.85" height="129.864"/>
		
			<rect x="1438.7" y="385.281" fill-rule="evenodd" fill="none" stroke="#F2DBB5" stroke-width="2" stroke-miterlimit="10" width="81.85" height="129.864"/>
	</g>
	<g>
		<rect x="143.4" y="262.162" fill-rule="evenodd" fill="#EAF1FC" width="78" height="43.559"/>
		
			<rect x="143.4" y="262.162" fill-rule="evenodd" fill="none" stroke="#B2C7E0" stroke-width="2" stroke-miterlimit="10" width="78" height="43.559"/>
	</g>
	<g>
		<rect x="1518.502" y="385.266" fill-rule="evenodd" fill="#FFE9EE" width="114.419" height="125.932"/>
		
			<rect x="1518.502" y="385.266" fill-rule="evenodd" fill="none" stroke="#F1B3C6" stroke-width="2" stroke-miterlimit="10" width="114.419" height="125.932"/>
	</g>
	<g>
		<rect x="143.4" y="144.368" fill-rule="evenodd" fill="#DDD3FF" width="78" height="119.187"/>
		
			<rect x="143.4" y="144.368" fill-rule="evenodd" fill="none" stroke="#BDB0E4" stroke-width="2" stroke-miterlimit="10" width="78" height="119.187"/>
	</g>
	<g>
		<rect x="2133.35" y="279.95" fill-rule="evenodd" fill="#DAD7FE" width="56.65" height="40.35"/>
		
			<rect x="2133.35" y="279.95" fill-rule="evenodd" fill="none" stroke="#B9B5E3" stroke-width="2" stroke-miterlimit="10" width="56.65" height="40.35"/>
	</g>
	<g>
		<rect x="967" y="386.647" fill-rule="evenodd" fill="#EAF1FC" width="114.5" height="118.527"/>
		
			<rect x="967" y="386.647" fill-rule="evenodd" fill="none" stroke="#B2C7E0" stroke-width="2" stroke-miterlimit="10" width="114.5" height="118.527"/>
	</g>
	<g>
		<rect x="831.35" y="435.6" fill-rule="evenodd" fill="#DAD7FE" width="54" height="44.7"/>
		
			<rect x="831.35" y="435.6" fill-rule="evenodd" fill="none" stroke="#B9B5E3" stroke-width="2" stroke-miterlimit="10" width="54" height="44.7"/>
	</g>
	<g>
		<rect x="57.05" y="144.25" fill-rule="evenodd" fill="#DEDFDE" width="86.35" height="84.05"/>
		
			<rect x="57.05" y="144.25" fill-rule="evenodd" fill="none" stroke="#C8C4C7" stroke-width="2" stroke-miterlimit="10" width="86.35" height="84.05"/>
	</g>
	<g>
		<rect x="2189" y="279.95" fill-rule="evenodd" fill="#DEDFDE" width="62.05" height="40.35"/>
		
			<rect x="2189" y="279.95" fill-rule="evenodd" fill="none" stroke="#C8C4C7" stroke-width="2" stroke-miterlimit="10" width="62.05" height="40.35"/>
	</g>
	<g>
		<rect x="1759.35" y="313.511" fill-rule="evenodd" fill="#DEDFDE" width="109.7" height="71.164"/>
		
			<rect x="1759.35" y="313.511" fill-rule="evenodd" fill="none" stroke="#C8C4C7" stroke-width="2" stroke-miterlimit="10" width="109.7" height="71.164"/>
	</g>
	<g>
		<rect x="742.05" y="310.95" fill-rule="evenodd" fill="#DEDFDE" width="110.65" height="71.3"/>
		
			<rect x="742.05" y="310.95" fill-rule="evenodd" fill="none" stroke="#C8C4C7" stroke-width="2" stroke-miterlimit="10" width="110.65" height="71.3"/>
	</g>
	
		<line fill-rule="evenodd" fill="none" stroke="#C8C4C7" stroke-width="2" stroke-miterlimit="10" x1="2133.35" y1="351.45" x2="2209" y2="351.45"/>
	
		<line fill-rule="evenodd" fill="none" stroke="#C8C4C7" stroke-width="2" stroke-miterlimit="10" x1="2145.35" y1="321.11" x2="2145.35" y2="383.36"/>
	
		<line fill-rule="evenodd" fill="none" stroke="#C8C4C7" stroke-width="2" stroke-miterlimit="10" x1="2159.35" y1="321.284" x2="2159.35" y2="383.213"/>
	
		<line fill-rule="evenodd" fill="none" stroke="#C8C4C7" stroke-width="2" stroke-miterlimit="10" x1="2171.2" y1="321.269" x2="2171.2" y2="383.25"/>
	
		<line fill-rule="evenodd" fill="none" stroke="#C8C4C7" stroke-width="2" stroke-miterlimit="10" x1="2183.35" y1="321.3" x2="2183.35" y2="383.95"/>
	
		<line fill-rule="evenodd" fill="none" stroke="#C8C4C7" stroke-width="2" stroke-miterlimit="10" x1="2196" y1="320.313" x2="2196" y2="383.453"/>
	
		<line fill-rule="evenodd" fill="none" stroke="#C8C4C7" stroke-width="2" stroke-miterlimit="10" x1="2209" y1="320.3" x2="2209" y2="383.25"/>
	
		<line fill-rule="evenodd" fill="none" stroke="#C8C4C7" stroke-width="2" stroke-miterlimit="10" x1="2133.35" y1="321.334" x2="2133.35" y2="383.139"/>
	
		<line fill-rule="evenodd" fill="none" stroke="#C8C4C7" stroke-width="2" stroke-miterlimit="10" x1="1730.35" y1="449.95" x2="1798.8" y2="449.95"/>
	
		<line fill-rule="evenodd" fill="none" stroke="#C8C4C7" stroke-width="2" stroke-miterlimit="10" x1="1741.2" y1="421.8" x2="1741.2" y2="477.25"/>
	
		<line fill-rule="evenodd" fill="none" stroke="#C8C4C7" stroke-width="2" stroke-miterlimit="10" x1="1753.9" y1="421.8" x2="1753.9" y2="477.25"/>
	
		<line fill-rule="evenodd" fill="none" stroke="#C8C4C7" stroke-width="2" stroke-miterlimit="10" x1="1764.6" y1="421.8" x2="1764.6" y2="478.75"/>
	
		<line fill-rule="evenodd" fill="none" stroke="#C8C4C7" stroke-width="2" stroke-miterlimit="10" x1="1775.6" y1="421.8" x2="1775.6" y2="478.45"/>
	
		<line fill-rule="evenodd" fill="none" stroke="#C8C4C7" stroke-width="2" stroke-miterlimit="10" x1="1787.05" y1="421.8" x2="1787.05" y2="477.25"/>
	
		<line fill-rule="evenodd" fill="none" stroke="#C8C4C7" stroke-width="2" stroke-miterlimit="10" x1="1798.8" y1="421.8" x2="1798.8" y2="478.75"/>
	
		<line fill-rule="evenodd" fill="none" stroke="#C8C4C7" stroke-width="2" stroke-miterlimit="10" x1="1730.35" y1="421.8" x2="1730.35" y2="477.25"/>
	
		<line fill-rule="evenodd" fill="none" stroke="#C8C4C7" stroke-width="2" stroke-miterlimit="10" x1="84.95" y1="317.35" x2="84.95" y2="253.75"/>
	
		<line fill-rule="evenodd" fill="none" stroke="#C8C4C7" stroke-width="2" stroke-miterlimit="10" x1="59.75" y1="307.3" x2="111.35" y2="307.3"/>
	
		<line fill-rule="evenodd" fill="none" stroke="#C8C4C7" stroke-width="2" stroke-miterlimit="10" x1="59.75" y1="295.5" x2="111.35" y2="295.5"/>
	
		<line fill-rule="evenodd" fill="none" stroke="#C8C4C7" stroke-width="2" stroke-miterlimit="10" x1="58.75" y1="285.55" x2="111.75" y2="285.55"/>
	
		<line fill-rule="evenodd" fill="none" stroke="#C8C4C7" stroke-width="2" stroke-miterlimit="10" x1="58.75" y1="275.3" x2="111.45" y2="275.3"/>
	
		<line fill-rule="evenodd" fill="none" stroke="#C8C4C7" stroke-width="2" stroke-miterlimit="10" x1="59.75" y1="264.65" x2="111.35" y2="264.65"/>
	
		<line fill-rule="evenodd" fill="none" stroke="#C8C4C7" stroke-width="2" stroke-miterlimit="10" x1="844.55" y1="493.55" x2="875.2" y2="493.55"/>
	
		<line fill-rule="evenodd" fill="none" stroke="#C8C4C7" stroke-width="2" stroke-miterlimit="10" x1="849.4" y1="480.95" x2="849.4" y2="505.75"/>
	
		<line fill-rule="evenodd" fill="none" stroke="#C8C4C7" stroke-width="2" stroke-miterlimit="10" x1="855.1" y1="480.95" x2="855.1" y2="505.75"/>
	
		<line fill-rule="evenodd" fill="none" stroke="#C8C4C7" stroke-width="2" stroke-miterlimit="10" x1="859.9" y1="480.95" x2="859.9" y2="506.45"/>
	
		<line fill-rule="evenodd" fill="none" stroke="#C8C4C7" stroke-width="2" stroke-miterlimit="10" x1="864.8" y1="480.95" x2="864.8" y2="506.3"/>
	
		<line fill-rule="evenodd" fill="none" stroke="#C8C4C7" stroke-width="2" stroke-miterlimit="10" x1="869.95" y1="480.95" x2="869.95" y2="505.75"/>
	
		<line fill-rule="evenodd" fill="none" stroke="#C8C4C7" stroke-width="2" stroke-miterlimit="10" x1="875.2" y1="480.95" x2="875.2" y2="506.45"/>
	
		<line fill-rule="evenodd" fill="none" stroke="#C8C4C7" stroke-width="2" stroke-miterlimit="10" x1="844.55" y1="480.95" x2="844.55" y2="505.75"/>
	
		<line fill-rule="evenodd" fill="none" stroke="#C8C4C7" stroke-width="2" stroke-miterlimit="10" x1="844.55" y1="423.65" x2="875.2" y2="423.65"/>
	
		<line fill-rule="evenodd" fill="none" stroke="#C8C4C7" stroke-width="2" stroke-miterlimit="10" x1="849.4" y1="411.05" x2="849.4" y2="435.85"/>
	
		<line fill-rule="evenodd" fill="none" stroke="#C8C4C7" stroke-width="2" stroke-miterlimit="10" x1="855.1" y1="411" x2="855.1" y2="435.85"/>
	
		<line fill-rule="evenodd" fill="none" stroke="#C8C4C7" stroke-width="2" stroke-miterlimit="10" x1="859.9" y1="411.05" x2="859.9" y2="436.55"/>
	
		<line fill-rule="evenodd" fill="none" stroke="#C8C4C7" stroke-width="2" stroke-miterlimit="10" x1="864.8" y1="411.05" x2="864.8" y2="436.4"/>
	
		<line fill-rule="evenodd" fill="none" stroke="#C8C4C7" stroke-width="2" stroke-miterlimit="10" x1="869.95" y1="411.05" x2="869.95" y2="435.85"/>
	
		<line fill-rule="evenodd" fill="none" stroke="#C8C4C7" stroke-width="2" stroke-miterlimit="10" x1="875.2" y1="411" x2="875.2" y2="436.55"/>
	
		<line fill-rule="evenodd" fill="none" stroke="#C8C4C7" stroke-width="2" stroke-miterlimit="10" x1="844.55" y1="411.05" x2="844.55" y2="435.85"/>
	
		<line fill-rule="evenodd" fill="none" stroke="#C8C4C7" stroke-width="2" stroke-miterlimit="10" x1="818.5" y1="442.65" x2="818.5" y2="473.25"/>
	
		<line fill-rule="evenodd" fill="none" stroke="#C8C4C7" stroke-width="2" stroke-miterlimit="10" x1="831.1" y1="447.5" x2="806.3" y2="447.5"/>
	
		<line fill-rule="evenodd" fill="none" stroke="#C8C4C7" stroke-width="2" stroke-miterlimit="10" x1="831.1" y1="453.15" x2="806.3" y2="453.15"/>
	
		<line fill-rule="evenodd" fill="none" stroke="#C8C4C7" stroke-width="2" stroke-miterlimit="10" x1="831.1" y1="457.95" x2="805.6" y2="457.95"/>
	
		<line fill-rule="evenodd" fill="none" stroke="#C8C4C7" stroke-width="2" stroke-miterlimit="10" x1="831.1" y1="462.85" x2="805.75" y2="462.85"/>
	
		<line fill-rule="evenodd" fill="none" stroke="#C8C4C7" stroke-width="2" stroke-miterlimit="10" x1="831.1" y1="468" x2="806.3" y2="468"/>
	
		<line fill-rule="evenodd" fill="none" stroke="#C8C4C7" stroke-width="2" stroke-miterlimit="10" x1="831.1" y1="473.25" x2="805.6" y2="473.25"/>
	
		<line fill-rule="evenodd" fill="none" stroke="#C8C4C7" stroke-width="2" stroke-miterlimit="10" x1="831.1" y1="442.65" x2="806.3" y2="442.65"/>
	<path fill-rule="evenodd" fill="none" stroke="#C8C4C7" stroke-width="2" stroke-miterlimit="10" d="M1402.7,418v31.2v30.149h-13
		h-12.65h-12.2H1353h-14h-12V449.2V418h12h14h11.85h12.2h12.65H1402.7z M1389.7,479.35V449.2h-12.65v30.149 M1402.7,449.2h-13
		 M1364.85,418v31.2h12.2V418 M1389.7,418v31.2 M1353,479.35V449.2h-14v30.149 M1364.85,479.35V449.2H1353V418 M1339,449.2h-12
		 M1339,418v31.2"/>
	
		<path fill-rule="evenodd" fill="none" stroke="#C8C4C7" stroke-width="2" stroke-linecap="round" stroke-linejoin="bevel" stroke-miterlimit="3" d="
		M1152.05,142.25l9.8-7.75c8.667-6.167,18.317-11.833,28.95-17c34-16.5,71.417-24.75,112.25-24.75s76.75,8.25,107.75,24.75
		c9.7,5.167,18.317,10.833,25.851,17c3.767,3.1,6.566,5.683,8.399,7.75"/>
	<polyline fill-rule="evenodd" fill="none" stroke="#BF8B62" stroke-width="5" stroke-miterlimit="10" points="1150,507.25 
		967,507.25 967,549.25 	"/>
	<polyline fill-rule="evenodd" fill="none" stroke="#BF8B62" stroke-width="5" stroke-miterlimit="10" points="886,549.25 
		886,507.25 804,507.25 804,408.25 886,408.25 886,383.25 57.05,385.6 	"/>
	<g>
		<rect x="221.4" y="140.25" fill-rule="evenodd" fill="#FFFFDE" width="52" height="72.7"/>
		
			<rect x="221.4" y="140.25" fill-rule="evenodd" fill="none" stroke="#F2DBB5" stroke-width="2" stroke-miterlimit="10" width="52" height="72.7"/>
	</g>
	<polyline fill-rule="evenodd" fill="none" stroke="#C8C4C7" stroke-width="2" stroke-miterlimit="10" points="58.75,253.75 
		111.75,253.75 111.75,317.35 58.75,317.35 	"/>
	<path fill-rule="evenodd" fill="none" stroke="#BF8B62" stroke-width="5" stroke-miterlimit="10" d="M57.55,332.35v-190.1H1117.5
		l12.5-10.85c10.9-8.7,22.867-16.667,35.9-23.9c41.699-23.167,86.083-34.75,133.149-34.75c47.101,0,91.733,11.583,133.9,34.75
		c13.167,7.233,25.3,15.2,36.399,23.9c5.567,4.333,9.801,7.95,12.7,10.85"/>
	<g>
		<rect x="1376.581" y="143.25" fill-rule="evenodd" fill="#FFE8C5" width="62.493" height="70.01"/>
		
			<rect x="1376.581" y="143.25" fill-rule="evenodd" fill="none" stroke="#F2DBB5" stroke-width="2" stroke-miterlimit="10" width="62.493" height="70.01"/>
	</g>
	<g>
		<rect x="1164.37" y="143.011" fill-rule="evenodd" fill="#FFE8C5" width="63.243" height="70.017"/>
		
			<rect x="1164.37" y="143.011" fill-rule="evenodd" fill="none" stroke="#F2DBB5" stroke-width="2" stroke-miterlimit="10" width="63.243" height="70.017"/>
	</g>
	<g>
		<rect x="1672.647" y="141.052" fill-rule="evenodd" fill="#FFE8C5" width="74.313" height="72.115"/>
		
			<rect x="1672.647" y="141.052" fill-rule="evenodd" fill="none" stroke="#F2DBB5" stroke-width="2" stroke-miterlimit="10" width="74.313" height="72.115"/>
	</g>
	<g>
		<rect x="143.4" y="305.162" fill-rule="evenodd" fill="#FFE9EE" width="78" height="41.593"/>
		
			<rect x="143.4" y="305.162" fill-rule="evenodd" fill="none" stroke="#F1B3C6" stroke-width="2" stroke-miterlimit="10" width="78" height="41.593"/>
	</g>
</g>
<g id="New_Lvl_4_Rooms">
	<g>
		<rect x="247.35" y="234.95" fill-rule="evenodd" fill="#FDFFDD" width="362.6" height="48.65"/>
	</g>
	
		<line fill-rule="evenodd" fill="none" stroke="#F2DBB5" stroke-width="2" stroke-miterlimit="10" x1="548.45" y1="234.958" x2="548.45" y2="283.619"/>
	
		<line fill-rule="evenodd" fill="none" stroke="#F2DBB5" stroke-width="2" stroke-miterlimit="10" x1="324.4" y1="234.958" x2="324.4" y2="283.619"/>
	
		<line fill-rule="evenodd" fill="none" stroke="#F2DBB5" stroke-width="2" stroke-miterlimit="10" x1="397.45" y1="234.958" x2="397.45" y2="283.619"/>
	
		<line fill-rule="evenodd" fill="none" stroke="#F2DBB5" stroke-width="2" stroke-miterlimit="10" x1="476.75" y1="234.958" x2="476.75" y2="283.619"/>
	<g>
		<rect x="645" y="234.95" fill-rule="evenodd" fill="#FFFFDE" width="362.6" height="48.65"/>
	</g>
	
		<line fill-rule="evenodd" fill="none" stroke="#F2DBB5" stroke-width="2" stroke-miterlimit="10" x1="722.45" y1="234.958" x2="722.45" y2="283.619"/>
	
		<line fill-rule="evenodd" fill="none" stroke="#F2DBB5" stroke-width="2" stroke-miterlimit="10" x1="792.7" y1="234.958" x2="792.7" y2="283.619"/>
	
		<line fill-rule="evenodd" fill="none" stroke="#F2DBB5" stroke-width="2" stroke-miterlimit="10" x1="869.95" y1="234.958" x2="869.95" y2="283.619"/>
	
		<line fill-rule="evenodd" fill="none" stroke="#F2DBB5" stroke-width="2" stroke-miterlimit="10" x1="945.95" y1="234.958" x2="945.95" y2="283.619"/>
	<g>
		<rect x="1862.9" y="238.9" fill-rule="evenodd" fill="#FFFFDE" width="221.649" height="48.65"/>
	</g>
	
		<line fill-rule="evenodd" fill="none" stroke="#F2DBB5" stroke-width="2" stroke-miterlimit="10" x1="1939.9" y1="238.908" x2="1939.9" y2="287.569"/>
	
		<line fill-rule="evenodd" fill="none" stroke="#F2DBB5" stroke-width="2" stroke-miterlimit="10" x1="2015.9" y1="238.908" x2="2015.9" y2="287.569"/>
</g>
<g id="Layer_11">
	<polygon fill-rule="evenodd" fill="#E9E5E2" points="1325.9,478 1402.9,478 1402.9,507.25 1081.5,507.25 1081.5,382.25 
		1402.9,382.25 1402.9,418 1325.9,418 	"/>
</g>
<g id="Think_Algo2">
	<g>
		<path fill-rule="evenodd" fill="#FFFFDE" d="M1343.55,381.55V312V381.55z M1186.3,382.25h-53.45v-69.9v69.9h-51.9V312h262.6h51.9
			v70.25h-103.8h-53.45H1186.3v-69.9V382.25z M1238.2,382.25V312.5V382.25z M1291.65,312.5v69.75V312.5z"/>
		<path fill-rule="evenodd" fill="none" stroke="#EFDAB7" stroke-width="2" stroke-miterlimit="10" d="M1343.55,312h-262.6v70.25
			h51.9 M1343.55,312h51.9v70.25h-103.8h-53.45 M1186.3,382.25h51.9 M1186.3,382.25h-53.45"/>
		<path fill-rule="evenodd" fill="none" stroke="#F2DBB5" stroke-width="2" stroke-miterlimit="10" d="M1343.55,312v-0.35
			 M1343.55,381.55V312 M1132.85,382.25v-69.9 M1291.65,382.25v0.3 M1186.3,312.35v69.9 M1238.2,382.25V312.5 M1291.65,312.5v69.75"
			/>
	</g>
</g>
<g id="Indicator">
	<g>
		<rect x="831.35" y="435.6" fill-rule="evenodd" fill="#FB8888" width="54" height="44.7"/>
		
			<rect x="831.35" y="435.6" fill-rule="evenodd" fill="none" stroke="#B3645E" stroke-width="2" stroke-miterlimit="10" width="54" height="44.7"/>
	</g>
</g>
<g id="Layer_6">
	<g>
		<rect x="1593.264" y="140.25" fill-rule="evenodd" fill="#FFFFDE" width="80.24" height="72.7"/>
		
			<rect x="1593.264" y="140.25" fill-rule="evenodd" fill="none" stroke="#F2DBB5" stroke-width="2" stroke-miterlimit="10" width="80.24" height="72.7"/>
	</g>
	<g>
		<rect x="1733.183" y="140.25" fill-rule="evenodd" fill="#FFFFDE" width="79.297" height="72.7"/>
		
			<rect x="1733.183" y="140.25" fill-rule="evenodd" fill="none" stroke="#F2DBB5" stroke-width="2" stroke-miterlimit="10" width="79.297" height="72.7"/>
	</g>
	<g>
		<rect x="1812.076" y="140.25" fill-rule="evenodd" fill="#FFFFDE" width="58.46" height="72.7"/>
		
			<rect x="1812.076" y="140.25" fill-rule="evenodd" fill="none" stroke="#F2DBB5" stroke-width="2" stroke-miterlimit="10" width="58.46" height="72.7"/>
	</g>
	<g>
		<rect x="1869.055" y="140.25" fill-rule="evenodd" fill="#FFFFDE" width="56.081" height="72.7"/>
		
			<rect x="1869.055" y="140.25" fill-rule="evenodd" fill="none" stroke="#F2DBB5" stroke-width="2" stroke-miterlimit="10" width="56.081" height="72.7"/>
	</g>
	<g>
		<rect x="1925.098" y="140.25" fill-rule="evenodd" fill="#FFFFDE" width="54.156" height="72.7"/>
		
			<rect x="1925.098" y="140.25" fill-rule="evenodd" fill="none" stroke="#F2DBB5" stroke-width="2" stroke-miterlimit="10" width="54.156" height="72.7"/>
	</g>
	<g>
		<rect x="1979.25" y="140.25" fill-rule="evenodd" fill="#FFFFDE" width="54.15" height="72.7"/>
		
			<rect x="1979.25" y="140.25" fill-rule="evenodd" fill="none" stroke="#F2DBB5" stroke-width="2" stroke-miterlimit="10" width="54.15" height="72.7"/>
	</g>
	<g>
		<rect x="2033.397" y="140.25" fill-rule="evenodd" fill="#FFFFDE" width="54.156" height="72.7"/>
		
			<rect x="2033.397" y="140.25" fill-rule="evenodd" fill="none" stroke="#F2DBB5" stroke-width="2" stroke-miterlimit="10" width="54.156" height="72.7"/>
	</g>
	<g>
		<rect x="2087.197" y="140.25" fill-rule="evenodd" fill="#FFFFDE" width="54.156" height="72.7"/>
		
			<rect x="2087.197" y="140.25" fill-rule="evenodd" fill="none" stroke="#F2DBB5" stroke-width="2" stroke-miterlimit="10" width="54.156" height="72.7"/>
	</g>
	<g>
		<rect x="2141.348" y="140.25" fill-rule="evenodd" fill="#FFFFDE" width="54.155" height="72.7"/>
		
			<rect x="2141.348" y="140.25" fill-rule="evenodd" fill="none" stroke="#F2DBB5" stroke-width="2" stroke-miterlimit="10" width="54.155" height="72.7"/>
	</g>
	<g>
		<rect x="2195.498" y="140.25" fill-rule="evenodd" fill="#FFFFDE" width="54.155" height="72.7"/>
		
			<rect x="2195.498" y="140.25" fill-rule="evenodd" fill="none" stroke="#F2DBB5" stroke-width="2" stroke-miterlimit="10" width="54.155" height="72.7"/>
	</g>
	<g>
		<rect x="2031.397" y="319.904" fill-rule="evenodd" fill="#FFFFDE" width="54.156" height="67.833"/>
		
			<rect x="2031.397" y="319.904" fill-rule="evenodd" fill="none" stroke="#F2DBB5" stroke-width="2" stroke-miterlimit="10" width="54.156" height="67.833"/>
	</g>
	<g>
		<rect x="1977.248" y="320.304" fill-rule="evenodd" fill="#FFFFDE" width="54.155" height="67.833"/>
		
			<rect x="1977.248" y="320.304" fill-rule="evenodd" fill="none" stroke="#F2DBB5" stroke-width="2" stroke-miterlimit="10" width="54.155" height="67.833"/>
	</g>
	<g>
		<rect x="1923.098" y="320.304" fill-rule="evenodd" fill="#FFFFDE" width="54.156" height="67.833"/>
		
			<rect x="1923.098" y="320.304" fill-rule="evenodd" fill="none" stroke="#F2DBB5" stroke-width="2" stroke-miterlimit="10" width="54.156" height="67.833"/>
	</g>
	<g>
		<rect x="1869.097" y="320.304" fill-rule="evenodd" fill="#FFFFDE" width="53.999" height="67.833"/>
		
			<rect x="1869.097" y="320.304" fill-rule="evenodd" fill="none" stroke="#F2DBB5" stroke-width="2" stroke-miterlimit="10" width="53.999" height="67.833"/>
	</g>
</g>
<g id="Layer_7">
	<g>
		
			<line fill-rule="evenodd" fill="none" stroke="#BF8B62" stroke-width="5" stroke-miterlimit="10" x1="1719.8" y1="385.6" x2="1719.8" y2="421.8"/>
		<path fill-rule="evenodd" fill="none" stroke="#BF8B62" stroke-width="5" stroke-linecap="square" stroke-miterlimit="10" d="
			M1481.55,142.25h769.5l-1.399,243.35H1719.8 M1720.05,421.25h100v57h-100V513"/>
	</g>
</g>
<g id="Place">
	<g>
		<polygon fill-rule="evenodd" fill="#FEFDDE" points="1153.8,663.9 1073.15,663.9 1073.15,596.6 1153.8,596.6 1257.8,596.6 
			1345.1,596.6 1447.1,596.6 1447.1,663.9 1447.1,596.6 1531.1,596.6 1531.1,663.9 1447.1,663.9 1345.1,663.9 1345.1,596.6 
			1345.1,663.9 1257.8,663.9 1257.8,596.6 1257.8,663.9 1153.8,663.9 1153.8,596.6 		"/>
		<path fill-rule="evenodd" fill="none" stroke="#F2DBB5" stroke-width="2" stroke-miterlimit="10" d="M1447.1,596.6V663.9
			 M1345.1,596.6V663.9 M1073.15,663.9V596.6 M1257.8,596.6V663.9 M1153.8,596.6V663.9"/>
	</g>
</g>
<g id="Layer_14">
	<g>
		<rect x="965.926" y="667.463" fill-rule="evenodd" fill="#DDD3FF" width="78.924" height="95.604"/>
		
			<rect x="965.926" y="667.463" fill-rule="evenodd" fill="none" stroke="#BDB0E4" stroke-width="2" stroke-miterlimit="10" width="78.924" height="95.604"/>
	</g>
</g>
<g id="Think_Algo">
	<g>
		<path fill-rule="evenodd" fill="#FFFFDE" d="M1299,507h51.9h44.949v67.9H1350.9H1299V507v67.9h-57.65V507H1299z M1350.9,574.9V507
			V574.9z M1189.4,507v67.9V507h51.949v67.9H1189.4H1133.3h-48.55V507h48.55H1189.4z M1133.3,507v67.9V507z"/>
		<path fill-rule="evenodd" fill="none" stroke="#EFDAB7" stroke-width="2" stroke-miterlimit="10" d="M1350.9,507h44.949v67.9
			H1350.9H1299h-57.65 M1299,507h51.9 M1189.4,507h51.949H1299 M1189.4,574.9h51.949 M1133.3,574.9h56.101 M1133.3,574.9h-48.55V507
			h48.55h56.101"/>
		<path fill-rule="evenodd" fill="none" stroke="#F2DBB5" stroke-width="2" stroke-miterlimit="10" d="M1350.9,506.2v0.8v67.9
			 M1299,574.9v0.3 M1299,506.35V507v67.9 M1189.4,506.15V507v67.9 M1241.35,507v-0.85 M1241.35,574.9V507 M1133.3,507v67.9"/>
	</g>
</g>
<g id="Layer_2">
	<g>
		<rect x="1498.384" y="686.317" fill-rule="evenodd" fill="#DDD3FF" width="39.005" height="77.92"/>
		
			<rect x="1498.384" y="686.317" fill-rule="evenodd" fill="none" stroke="#BDB0E4" stroke-width="2" stroke-miterlimit="10" width="39.005" height="77.92"/>
	</g>
	<g>
		<rect x="1044.9" y="686.251" fill-rule="evenodd" fill="#FFFFDE" width="53.3" height="77.594"/>
		
			<rect x="1044.9" y="686.251" fill-rule="evenodd" fill="none" stroke="#F2DBB5" stroke-width="2" stroke-miterlimit="10" width="53.3" height="77.594"/>
	</g>
	<g>
		<rect x="1097.4" y="686.201" fill-rule="evenodd" fill="#FFFFDE" width="53.3" height="77.594"/>
		
			<rect x="1097.4" y="686.201" fill-rule="evenodd" fill="none" stroke="#F2DBB5" stroke-width="2" stroke-miterlimit="10" width="53.3" height="77.594"/>
	</g>
	<g>
		<rect x="1150.699" y="686.212" fill-rule="evenodd" fill="#FFFFDE" width="53.301" height="78.747"/>
		
			<rect x="1150.699" y="686.212" fill-rule="evenodd" fill="none" stroke="#F2DBB5" stroke-width="2" stroke-miterlimit="10" width="53.301" height="78.747"/>
	</g>
	<g>
		<rect x="1449.553" y="686.229" fill-rule="evenodd" fill="#FFFFDE" width="48.887" height="76.595"/>
		
			<rect x="1449.553" y="686.229" fill-rule="evenodd" fill="none" stroke="#F2DBB5" stroke-width="2" stroke-miterlimit="10" width="48.887" height="76.595"/>
	</g>
	<g>
		<rect x="1401.746" y="686.229" fill-rule="evenodd" fill="#FFFFDE" width="48.634" height="76.595"/>
		
			<rect x="1401.746" y="686.229" fill-rule="evenodd" fill="none" stroke="#F2DBB5" stroke-width="2" stroke-miterlimit="10" width="48.634" height="76.595"/>
	</g>
	<g>
		<rect x="1354.799" y="686.229" fill-rule="evenodd" fill="#FFFFDE" width="47.903" height="76.595"/>
		
			<rect x="1354.799" y="686.229" fill-rule="evenodd" fill="none" stroke="#F2DBB5" stroke-width="2" stroke-miterlimit="10" width="47.903" height="76.595"/>
	</g>
	<g>
		<rect x="1303.188" y="686.229" fill-rule="evenodd" fill="#FFFFDE" width="51.677" height="76.595"/>
		
			<rect x="1303.188" y="686.229" fill-rule="evenodd" fill="none" stroke="#F2DBB5" stroke-width="2" stroke-miterlimit="10" width="51.677" height="76.595"/>
	</g>
	<g>
		<rect x="1252.556" y="686.229" fill-rule="evenodd" fill="#FFFFDE" width="52.629" height="76.595"/>
		
			<rect x="1252.556" y="686.229" fill-rule="evenodd" fill="none" stroke="#F2DBB5" stroke-width="2" stroke-miterlimit="10" width="52.629" height="76.595"/>
	</g>
	<g>
		<rect x="1199.9" y="686.239" fill-rule="evenodd" fill="#FFFFDE" width="52.649" height="78.699"/>
		
			<rect x="1199.9" y="686.239" fill-rule="evenodd" fill="none" stroke="#F2DBB5" stroke-width="2" stroke-miterlimit="10" width="52.649" height="78.699"/>
	</g>
	<g>
		<rect x="1558.214" y="658.781" fill-rule="evenodd" fill="#FFFFDE" width="77.272" height="56.521"/>
		
			<rect x="1558.214" y="658.781" fill-rule="evenodd" fill="none" stroke="#F2DBB5" stroke-width="2" stroke-miterlimit="10" width="77.272" height="56.521"/>
	</g>
	<g>
		<polygon fill-rule="evenodd" fill="#FFFFDE" points="1635.559,621.199 1635.559,667.976 1558.217,668.044 1558.217,621.268 		"/>
		<polygon fill-rule="evenodd" fill="none" stroke="#F2DBB5" stroke-width="2" stroke-miterlimit="10" points="1635.559,621.199 
			1635.559,667.976 1558.217,668.044 1558.217,621.268 		"/>
	</g>
	<g>
		
			<rect x="1556.115" y="500.411" transform="matrix(1.418153e-04 -1 1 1.418153e-04 1048.1504 2132.6565)" fill-rule="evenodd" fill="#FFFFDE" width="68.88" height="83.535"/>
		
			<rect x="1556.115" y="500.411" transform="matrix(1.418153e-04 -1 1 1.418153e-04 1048.1504 2132.6565)" fill-rule="evenodd" fill="none" stroke="#F2DBB5" stroke-width="2" stroke-miterlimit="10" width="68.88" height="83.535"/>
	</g>
	<g>
		
			<rect x="1488.249" y="513.666" transform="matrix(3.686706e-04 -1 1 3.686706e-04 980.1365 2064.4802)" fill-rule="evenodd" fill="#FFFFDE" width="68.88" height="56.651"/>
		
			<rect x="1488.249" y="513.666" transform="matrix(3.686706e-04 -1 1 3.686706e-04 980.1365 2064.4802)" fill-rule="evenodd" fill="none" stroke="#F2DBB5" stroke-width="2" stroke-miterlimit="10" width="68.88" height="56.651"/>
	</g>
	<g>
		
			<rect x="1432.848" y="513.673" transform="matrix(3.828565e-04 -1 1 3.828565e-04 924.7278 2009.079)" fill-rule="evenodd" fill="#FFFFDE" width="68.88" height="56.651"/>
		
			<rect x="1432.848" y="513.673" transform="matrix(3.828565e-04 -1 1 3.828565e-04 924.7278 2009.079)" fill-rule="evenodd" fill="none" stroke="#F2DBB5" stroke-width="2" stroke-miterlimit="10" width="68.88" height="56.651"/>
	</g>
	<g>
		<polygon fill-rule="evenodd" fill="#FFFFDE" points="966.046,622.943 1040.786,622.943 1041.16,669.015 966.42,669.015 		"/>
		<polygon fill-rule="evenodd" fill="none" stroke="#F2DBB5" stroke-width="2" stroke-miterlimit="10" points="966.046,622.943 
			1040.786,622.943 1041.16,669.015 966.42,669.015 		"/>
	</g>
	<g>
		<rect x="1537.416" y="713.453" fill-rule="evenodd" fill="#FFFFDE" width="98.8" height="48.79"/>
		
			<rect x="1537.416" y="713.453" fill-rule="evenodd" fill="none" stroke="#F2DBB5" stroke-width="2" stroke-miterlimit="10" width="98.8" height="48.79"/>
	</g>
</g>
<g id="Layer_10">
	<g>
		<path fill-rule="evenodd" fill="none" stroke="#BF8B62" stroke-width="5" stroke-miterlimit="10" d="M1327,418h75.9v-35.75h-321.4
			v125h321.4v-27.9H1327V418z M964.95,615v148.95h671.95V620 M967,539v37"/>
		
			<line fill-rule="evenodd" fill="none" stroke="#BF8B62" stroke-width="5" stroke-linecap="square" stroke-miterlimit="10" x1="1633.9" y1="576.35" x2="1633.9" y2="385.25"/>
	</g>
</g>
<g id="Sixes">
	<g>
		<path fill-rule="evenodd" fill="#FFFFDE" d="M1736.6,227.3v34.95h44.5V229.9v32.35h-44.5V227.3z M1673.5,227.3v69.95h-44.4V227.3
			H1673.5z M1694.1,227.3h42.5h89v34.95v35h-44.5h-44.5h-42.5v-35V227.3z M1825.6,262.25h-44.5v35v-35H1825.6z M1736.6,297.25v-35
			h-42.5h42.5V297.25z M1412.95,262.25h-44.5V297v-34.75H1412.95V297h-44.5h-44.9v-34.75V227.3h89.4V262.25z M1477.3,227.3v34.95
			h44.5V227.3v34.95h-44.5V227.3z M1434.8,227.3h42.5h44.5h44.5v34.95v35h-44.5h-44.5h-42.5v-35V227.3z M1323.55,262.25h44.9v-34.7
			v34.7H1323.55z M1474.05,339.25h35v44.4h-35V339.25v44.4h-35v-43.4v-1H1474.05z M1566.3,262.25h-44.5v35v-35H1566.3z
			 M1477.3,262.25v35V262.25h-42.5H1477.3z M1086.35,227.3v34.95h44.5l-0.1-34.6l0.1,34.6h-44.5V227.3z M1043.85,227.3h42.5h89
			v34.95v35h-44.5h-44.5h-42.5v-35V227.3z M1043.85,262.25h42.5v35v-35H1043.85z M1175.35,262.25h-44.5v35v-35H1175.35z
			 M1290.2,262.25h-44.5V297v-34.75H1290.2z M1245.7,297h-44.9v-34.75V227.3h44.9h44.5v34.95V297H1245.7z M1200.8,262.25h44.9V227.3
			v34.95H1200.8z"/>
		<path fill-rule="evenodd" fill="none" stroke="#EFDAB7" stroke-width="2" stroke-miterlimit="10" d="M1736.6,227.3v34.95h44.5
			V229.9 M1825.6,262.25h-44.5v35 M1736.6,297.25v-35h-42.5 M1323.55,262.25h44.9v-34.7 M1439.05,340.25v43.4v1 M1474.05,383.65
			v-44.4 M1412.95,262.25h-44.5V297 M1477.3,227.3v34.95h44.5V227.3 M1566.3,262.25h-44.5v35 M1477.3,262.25v35 M1434.8,262.25h42.5
			 M1086.35,227.3v34.95h44.5l-0.1-34.6 M1043.85,262.25h42.5v35 M1175.35,262.25h-44.5v35 M1290.2,262.25h-44.5V297 M1200.8,262.25
			h44.9V227.3"/>
	</g>
</g>
</svg>
