<?xml version="1.0" encoding="utf-8"?>
<!-- Generator: Adobe Illustrator 16.0.0, SVG Export Plug-In . SVG Version: 6.00 Build 0)  -->
<svg version="1.2" baseProfile="tiny" id="Selected_Items"
	 xmlns="http://www.w3.org/2000/svg" xmlns:xlink="http://www.w3.org/1999/xlink" x="0px" y="0px" width="279px" height="279px"
	 viewBox="0 0 279 279" xml:space="preserve">
<path fill-rule="evenodd" fill="#FFFFFF" d="M279,139.5c0,38.533-13.616,71.416-40.85,98.649S178.033,279,139.5,279
	s-71.417-13.617-98.65-40.851S0,178.033,0,139.5c0-38.534,13.617-71.417,40.85-98.65C68.083,13.617,100.967,0,139.5,0
	s71.417,13.617,98.65,40.85C265.384,68.083,279,100.966,279,139.5z"/>
<g id="InnerToil_Male">
	<path fill-rule="evenodd" fill="#9EC7F0" d="M226.835,52.165c24.109,24.11,36.164,53.222,36.164,87.335
		s-12.055,63.225-36.164,87.335c-24.11,24.109-53.222,36.164-87.335,36.164s-63.225-12.055-87.335-36.164
		C28.056,202.725,16,173.613,16,139.5s12.055-63.225,36.165-87.335C76.275,28.056,105.387,16,139.5,16
		S202.725,28.056,226.835,52.165z"/>
</g>
<g id="LHomme">
	<path fill-rule="evenodd" fill="#FFFFFF" d="M154.5,61.15c0,0.9-0.066,1.767-0.2,2.6c-0.5,3.633-2.116,6.8-4.85,9.5
		c-3.333,3.333-7.367,5-12.1,5c-4.7,0-8.733-1.667-12.1-5c-2.7-2.7-4.3-5.867-4.8-9.5c-0.133-0.833-0.2-1.7-0.2-2.6
		c0-4.7,1.667-8.733,5-12.1c3.367-3.333,7.4-5,12.1-5c4.733,0,8.767,1.667,12.1,5C152.816,52.417,154.5,56.45,154.5,61.15z
		 M161.1,83.15c3.967,0,7.351,1.4,10.15,4.2c2.834,2.833,4.25,6.233,4.25,10.2v53.5c0,3.967-1.416,7.35-4.25,10.15
		c-2.8,2.8-6.184,4.199-10.15,4.199v55.201c0,3.967-1.416,7.35-4.25,10.149c-2.8,2.833-6.184,4.25-10.149,4.25h-12.65
		c-3.966,0-7.35-1.417-10.15-4.25c-2.8-2.8-4.2-6.183-4.2-10.149v-55.201h-1.75c-3.967,0-7.367-1.399-10.2-4.199
		c-2.8-2.801-4.2-6.184-4.2-10.15v-53.5c0-3.966,1.4-7.367,4.2-10.2c2.833-2.8,6.233-4.2,10.2-4.2H161.1z"/>
</g>
</svg>
